<?xml version="1.0" standalone="no"?>
  <!DOCTYPE svg PUBLIC "-//W3C//DTD SVG 1.1//EN" "http://www.w3.org/Graphics/SVG/1.1/DTD/svg11.dtd" >
  <svg>
  <metadata>
  Created by font-carrier
  </metadata>
  <defs>
  <font id="Acrom-Medium" horiz-adv-x="1320" vert-adv-y="1320" >
    <font-face
      
      font-family="Acrom Medium"
      
      font-weight="400"
      
      font-stretch="normal"
      
      units-per-em="1000"
      
      ascent="950"
      
      descent="-250"
      
    />
      <missing-glyph />

      

      
      <glyph glyph-name="uni41" unicode="&#x41;" d="M227 157L500 157L563 0L682 0L396 700L333 700L44 0L163 0ZM364 503L463 259L265 259Z"  horiz-adv-x="727" vert-adv-y="1000"  />

      
      <glyph glyph-name="unic1" unicode="&#xc1;" d="M397 750L511 882L399 882L320 750ZM682 0L396 700L333 700L44 0L163 0L227 157L500 157L563 0ZM265 259L364 503L463 259Z"  horiz-adv-x="727" vert-adv-y="1000"  />

      
      <glyph glyph-name="uni0102" unicode="&#x0102;" d="M444 891C444 851 409 820 364 820C319 820 284 851 284 891L214 891C214 810 281 750 364 750C447 750 514 810 514 891ZM682 0L396 700L333 700L44 0L163 0L227 157L500 157L563 0ZM265 259L364 503L463 259Z"  horiz-adv-x="727" vert-adv-y="1000"  />

      
      <glyph glyph-name="uni01CD" unicode="&#x01CD;" d="M411 750L508 884L429 884L363 826L296 883L217 883L314 750ZM682 0L396 700L333 700L44 0L163 0L227 157L500 157L563 0ZM265 259L364 503L463 259Z"  horiz-adv-x="727" vert-adv-y="1000"  />

      
      <glyph glyph-name="unic2" unicode="&#xc2;" d="M509 750L412 884L315 884L218 750L297 750L364 808L430 750ZM682 0L396 700L333 700L44 0L163 0L227 157L500 157L563 0ZM265 259L364 503L463 259Z"  horiz-adv-x="727" vert-adv-y="1000"  />

      
      <glyph glyph-name="unic4" unicode="&#xc4;" d="M259 750C292 750 318 774 318 804C318 833 292 857 259 857C225 857 199 833 199 804C199 774 225 750 259 750ZM471 750C504 750 530 774 530 804C530 833 504 857 471 857C437 857 411 833 411 804C411 774 437 750 471 750ZM227 157L500 157L563 0L682 0L396 700L333 700L44 0L163 0ZM364 503L463 259L265 259Z"  horiz-adv-x="727" vert-adv-y="1000"  />

      
      <glyph glyph-name="unic0" unicode="&#xc0;" d="M410 750L331 882L219 882L333 750ZM682 0L396 700L333 700L44 0L163 0L227 157L500 157L563 0ZM265 259L364 503L463 259Z"  horiz-adv-x="727" vert-adv-y="1000"  />

      
      <glyph glyph-name="uni0100" unicode="&#x0100;" d="M493 750L493 825L235 825L235 750ZM227 157L500 157L563 0L682 0L396 700L333 700L44 0L163 0ZM364 503L463 259L265 259Z"  horiz-adv-x="727" vert-adv-y="1000"  />

      
      <glyph glyph-name="uni0104" unicode="&#x0104;" d="M617-61C617-38 632-19 682 0L396 700L333 700L44 0L163 0L227 157L500 157L563 0L650 0C596-22 572-49 572-86C572-141 621-164 674-164L681-164L681-101L669-101C639-101 617-87 617-61ZM463 259L265 259L364 503Z"  horiz-adv-x="727" vert-adv-y="1000"  />

      
      <glyph glyph-name="unic5" unicode="&#xc5;" d="M363 927C314 927 275 887 275 839C275 790 314 750 363 750C412 750 452 790 452 839C452 887 412 927 363 927ZM364 876C385 876 400 859 400 839C400 818 385 801 364 801C342 801 327 818 327 839C327 859 342 876 364 876ZM227 157L500 157L563 0L682 0L396 700L333 700L44 0L163 0ZM364 503L463 259L265 259Z"  horiz-adv-x="727" vert-adv-y="1000"  />

      
      <glyph glyph-name="unic3" unicode="&#xc3;" d="M519 856L471 856L464 835C456 814 447 804 430 804C417 803 405 808 394 817L354 849C340 860 321 868 299 866C271 864 250 846 237 811L214 750L262 750L269 771C276 791 284 801 300 802C313 803 326 798 338 789L379 756C392 745 411 738 433 739C461 741 483 759 496 795ZM227 157L500 157L563 0L682 0L396 700L333 700L44 0L163 0ZM364 503L463 259L265 259Z"  horiz-adv-x="727" vert-adv-y="1000"  />

      
      <glyph glyph-name="unic6" unicode="&#xc6;" d="M470 404L470 598L816 598L816 700L333 700L44 0L163 0L227 157L362 157L362 0L816 0L816 102L470 102L470 302L793 302L793 404ZM362 500L362 259L265 259Z"  horiz-adv-x="871" vert-adv-y="1000"  />

      
      <glyph glyph-name="uni42" unicode="&#x42;" d="M109 700L109 0L386 0C575 0 638 86 638 197C638 284 589 349 506 366C570 389 606 442 606 517C606 592 571 700 371 700ZM217 598L382 598C486 598 503 548 503 503C503 457 480 408 382 408L217 408ZM217 315L408 315C498 315 535 268 535 208C535 149 503 102 408 102L217 102Z"  horiz-adv-x="692" vert-adv-y="1000"  />

      
      <glyph glyph-name="uni43" unicode="&#x43;" d="M419 707C222 707 63 547 63 350C63 153 222-7 419-7C523-7 617 38 683 109L613 174C563 123 495 95 419 95C280 95 171 201 171 350C171 498 280 605 419 605C495 605 563 576 613 526L683 591C617 662 523 707 419 707Z"  horiz-adv-x="738" vert-adv-y="1000"  />

      
      <glyph glyph-name="uni0106" unicode="&#x0106;" d="M419 750L533 882L421 882L342 750ZM419 707C222 707 63 547 63 350C63 153 222-7 419-7C523-7 617 38 683 109L613 174C563 123 495 95 419 95C280 95 171 201 171 350C171 498 280 605 419 605C495 605 563 576 613 526L683 591C617 662 523 707 419 707Z"  horiz-adv-x="738" vert-adv-y="1000"  />

      
      <glyph glyph-name="uni010C" unicode="&#x010C;" d="M468 750L565 884L486 884L420 826L353 883L274 883L371 750ZM419 707C222 707 63 547 63 350C63 153 222-7 419-7C523-7 617 38 683 109L613 174C563 123 495 95 419 95C280 95 171 201 171 350C171 498 280 605 419 605C495 605 563 576 613 526L683 591C617 662 523 707 419 707Z"  horiz-adv-x="738" vert-adv-y="1000"  />

      
      <glyph glyph-name="unic7" unicode="&#xc7;" d="M419 95C280 95 171 201 171 350C171 498 280 605 419 605C495 605 563 576 613 526L683 591C617 662 523 707 419 707C222 707 63 547 63 350C63 165 204 12 384-5L362-75C405-56 426-70 426-95C426-124 390-135 354-113L354-143C429-186 490-154 490-98C490-42 444-27 408-38L417-7L419-7C523-7 617 38 683 109L613 174C563 123 495 95 419 95Z"  horiz-adv-x="738" vert-adv-y="1000"  />

      
      <glyph glyph-name="uni010A" unicode="&#x010A;" d="M420 857C386 857 360 833 360 804C360 774 386 750 420 750C453 750 479 774 479 804C479 833 453 857 420 857ZM419 707C222 707 63 547 63 350C63 153 222-7 419-7C523-7 617 38 683 109L613 174C563 123 495 95 419 95C280 95 171 201 171 350C171 498 280 605 419 605C495 605 563 576 613 526L683 591C617 662 523 707 419 707Z"  horiz-adv-x="738" vert-adv-y="1000"  />

      
      <glyph glyph-name="uni44" unicode="&#x44;" d="M109 700L109 0L341 0C538 0 697 144 697 350C697 556 538 700 341 700ZM217 102L217 598L341 598C479 598 589 507 589 350C589 192 479 102 341 102Z"  horiz-adv-x="760" vert-adv-y="1000"  />

      
      <glyph glyph-name="unid0" unicode="&#xd0;" d="M167 700L167 382L109 382L109 319L167 319L167 0L399 0C596 0 755 144 755 350C755 556 596 700 399 700ZM275 102L275 319L359 319L359 382L275 382L275 598L399 598C537 598 647 507 647 350C647 192 537 102 399 102Z"  horiz-adv-x="818" vert-adv-y="1000"  />

      
      <glyph glyph-name="uni010E" unicode="&#x010E;" d="M402 750L499 884L420 884L354 826L287 883L208 883L305 750ZM109 700L109 0L341 0C538 0 697 144 697 350C697 556 538 700 341 700ZM217 598L341 598C479 598 589 507 589 350C589 192 479 102 341 102L217 102Z"  horiz-adv-x="760" vert-adv-y="1000"  />

      
      <glyph glyph-name="uni0110" unicode="&#x0110;" d="M167 700L167 382L109 382L109 319L167 319L167 0L399 0C596 0 755 144 755 350C755 556 596 700 399 700ZM275 102L275 319L359 319L359 382L275 382L275 598L399 598C537 598 647 507 647 350C647 192 537 102 399 102Z"  horiz-adv-x="818" vert-adv-y="1000"  />

      
      <glyph glyph-name="uni45" unicode="&#x45;" d="M217 404L217 598L564 598L564 700L109 700L109 0L564 0L564 102L217 102L217 302L540 302L540 404Z"  horiz-adv-x="618" vert-adv-y="1000"  />

      
      <glyph glyph-name="unic9" unicode="&#xc9;" d="M341 750L455 882L343 882L264 750ZM564 598L564 700L109 700L109 0L564 0L564 102L217 102L217 302L540 302L540 404L217 404L217 598Z"  horiz-adv-x="618" vert-adv-y="1000"  />

      
      <glyph glyph-name="uni011A" unicode="&#x011A;" d="M382 750L479 884L400 884L334 826L267 883L188 883L285 750ZM564 598L564 700L109 700L109 0L564 0L564 102L217 102L217 302L540 302L540 404L217 404L217 598Z"  horiz-adv-x="618" vert-adv-y="1000"  />

      
      <glyph glyph-name="unica" unicode="&#xca;" d="M480 750L383 884L286 884L189 750L268 750L335 808L401 750ZM564 598L564 700L109 700L109 0L564 0L564 102L217 102L217 302L540 302L540 404L217 404L217 598Z"  horiz-adv-x="618" vert-adv-y="1000"  />

      
      <glyph glyph-name="unicb" unicode="&#xcb;" d="M228 857C194 857 168 834 168 804C168 774 194 750 228 750C261 750 287 774 287 804C287 834 261 857 228 857ZM439 857C405 857 379 834 379 804C379 774 405 750 439 750C472 750 498 774 498 804C498 834 472 857 439 857ZM564 598L564 700L109 700L109 0L564 0L564 102L217 102L217 302L540 302L540 404L217 404L217 598Z"  horiz-adv-x="618" vert-adv-y="1000"  />

      
      <glyph glyph-name="uni0116" unicode="&#x0116;" d="M332 857C298 857 272 833 272 804C272 774 298 750 332 750C365 750 391 774 391 804C391 833 365 857 332 857ZM564 598L564 700L109 700L109 0L564 0L564 102L217 102L217 302L540 302L540 404L217 404L217 598Z"  horiz-adv-x="618" vert-adv-y="1000"  />

      
      <glyph glyph-name="unic8" unicode="&#xc8;" d="M397 750L318 882L206 882L320 750ZM564 598L564 700L109 700L109 0L564 0L564 102L217 102L217 302L540 302L540 404L217 404L217 598Z"  horiz-adv-x="618" vert-adv-y="1000"  />

      
      <glyph glyph-name="uni0112" unicode="&#x0112;" d="M461 750L461 825L203 825L203 750ZM564 598L564 700L109 700L109 0L564 0L564 102L217 102L217 302L540 302L540 404L217 404L217 598Z"  horiz-adv-x="618" vert-adv-y="1000"  />

      
      <glyph glyph-name="uni0118" unicode="&#x0118;" d="M217 598L564 598L564 700L109 700L109 0L531 0C477-22 453-49 453-86C453-141 502-164 555-164L562-164L562-101L550-101C520-101 498-87 498-61C498-38 513-19 563 0L564 0L564 102L217 102L217 302L540 302L540 404L217 404Z"  horiz-adv-x="618" vert-adv-y="1000"  />

      
      <glyph glyph-name="uni46" unicode="&#x46;" d="M217 404L217 598L564 598L564 700L109 700L109 0L217 0L217 302L540 302L540 404Z"  horiz-adv-x="618" vert-adv-y="1000"  />

      
      <glyph glyph-name="uni47" unicode="&#x47;" d="M419 706C222 706 63 546 63 349C63 152 222-8 419-8C523-8 617 37 683 108L683 377L415 377L415 294L575 294L575 149C533 114 479 94 419 94C280 94 171 201 171 349C171 498 280 605 419 605C495 605 563 576 613 525L683 590C617 661 523 706 419 706Z"  horiz-adv-x="783" vert-adv-y="1000"  />

      
      <glyph glyph-name="uni011E" unicode="&#x011E;" d="M499 891C499 851 464 820 419 820C374 820 339 851 339 891L269 891C269 810 336 750 419 750C502 750 569 810 569 891ZM419 706C222 706 63 546 63 349C63 152 222-8 419-8C523-8 617 37 683 108L683 377L415 377L415 294L575 294L575 149C533 114 479 94 419 94C280 94 171 201 171 349C171 498 280 605 419 605C495 605 563 576 613 525L683 590C617 661 523 706 419 706Z"  horiz-adv-x="783" vert-adv-y="1000"  />

      
      <glyph glyph-name="uni0122" unicode="&#x0122;" d="M419 706C222 706 63 546 63 349C63 152 222-8 419-8C523-8 617 37 683 108L683 377L415 377L415 294L575 294L575 149C533 114 479 94 419 94C280 94 171 201 171 349C171 498 280 605 419 605C495 605 563 576 613 525L683 590C617 661 523 706 419 706ZM377-200L491-69L379-69L300-200Z"  horiz-adv-x="783" vert-adv-y="1000"  />

      
      <glyph glyph-name="uni0120" unicode="&#x0120;" d="M420 857C386 857 360 833 360 804C360 774 386 750 420 750C453 750 479 774 479 804C479 833 453 857 420 857ZM419 706C222 706 63 546 63 349C63 152 222-8 419-8C523-8 617 37 683 108L683 377L415 377L415 294L575 294L575 149C533 114 479 94 419 94C280 94 171 201 171 349C171 498 280 605 419 605C495 605 563 576 613 525L683 590C617 661 523 706 419 706Z"  horiz-adv-x="783" vert-adv-y="1000"  />

      
      <glyph glyph-name="uni48" unicode="&#x48;" d="M647 0L647 700L539 700L539 404L217 404L217 700L109 700L109 0L217 0L217 302L539 302L539 0Z"  horiz-adv-x="756" vert-adv-y="1000"  />

      
      <glyph glyph-name="uni0126" unicode="&#x0126;" d="M803 500L803 563L725 563L725 700L617 700L617 563L295 563L295 700L187 700L187 563L109 563L109 500L187 500L187 0L295 0L295 302L617 302L617 0L725 0L725 500ZM617 500L617 404L295 404L295 500Z"  horiz-adv-x="912" vert-adv-y="1000"  />

      
      <glyph glyph-name="uni49" unicode="&#x49;" d="M300 102L300 598L383 598L383 700L109 700L109 598L192 598L192 102L109 102L109 0L383 0L383 102Z"  horiz-adv-x="492" vert-adv-y="1000"  />

      
      <glyph glyph-name="uni0132" unicode="&#x0132;" d="M383 598L383 700L109 700L109 598L192 598L192 102L109 102L109 0L383 0L383 102L300 102L300 598ZM892 700L562 700L562 598L785 598L785 233C785 147 733 95 655 95C577 95 525 147 525 233L525 281L417 281L417 247C417 75 519-7 655-7C790-7 892 75 892 247Z"  horiz-adv-x="956" vert-adv-y="1000"  />

      
      <glyph glyph-name="unicd" unicode="&#xcd;" d="M247 750L361 882L249 882L170 750ZM383 598L383 700L109 700L109 598L192 598L192 102L109 102L109 0L383 0L383 102L300 102L300 598Z"  horiz-adv-x="492" vert-adv-y="1000"  />

      
      <glyph glyph-name="uni01CF" unicode="&#x01CF;" d="M313 750L410 884L331 884L265 826L198 883L119 883L216 750ZM400 598L400 700L126 700L126 598L209 598L209 102L126 102L126 0L400 0L400 102L317 102L317 598Z"  horiz-adv-x="526" vert-adv-y="1000"  />

      
      <glyph glyph-name="unice" unicode="&#xce;" d="M410 750L313 884L216 884L119 750L198 750L265 808L331 750ZM400 598L400 700L126 700L126 598L209 598L209 102L126 102L126 0L400 0L400 102L317 102L317 598Z"  horiz-adv-x="526" vert-adv-y="1000"  />

      
      <glyph glyph-name="unicf" unicode="&#xcf;" d="M169 857C135 857 109 833 109 804C109 774 135 750 169 750C202 750 228 774 228 804C228 833 202 857 169 857ZM381 857C347 857 321 833 321 804C321 774 347 750 381 750C414 750 440 774 440 804C440 833 414 857 381 857ZM411 598L411 700L137 700L137 598L220 598L220 102L137 102L137 0L411 0L411 102L328 102L328 598Z"  horiz-adv-x="549" vert-adv-y="1000"  />

      
      <glyph glyph-name="uni0130" unicode="&#x0130;" d="M247 750C280 750 306 774 306 804C306 833 280 857 247 857C213 857 187 833 187 804C187 774 213 750 247 750ZM300 102L300 598L383 598L383 700L109 700L109 598L192 598L192 102L109 102L109 0L383 0L383 102Z"  horiz-adv-x="492" vert-adv-y="1000"  />

      
      <glyph glyph-name="unicc" unicode="&#xcc;" d="M237 882L125 882L239 750L316 750ZM300 102L300 598L383 598L383 700L109 700L109 598L192 598L192 102L109 102L109 0L383 0L383 102Z"  horiz-adv-x="492" vert-adv-y="1000"  />

      
      <glyph glyph-name="uni012A" unicode="&#x012A;" d="M389 750L389 825L131 825L131 750ZM315 102L315 598L398 598L398 700L124 700L124 598L207 598L207 102L124 102L124 0L398 0L398 102Z"  horiz-adv-x="522" vert-adv-y="1000"  />

      
      <glyph glyph-name="uni012E" unicode="&#x012E;" d="M300 598L383 598L383 700L109 700L109 598L192 598L192 102L109 102L109 0L351 0C297-22 273-49 273-86C273-141 322-164 375-164L382-164L382-101L370-101C340-101 318-87 318-61C318-38 333-19 383 0L383 102L300 102Z"  horiz-adv-x="492" vert-adv-y="1000"  />

      
      <glyph glyph-name="uni4a" unicode="&#x4a;" d="M539 700L208 700L208 598L431 598L431 233C431 147 379 95 301 95C223 95 171 147 171 233L171 281L63 281L63 247C63 75 165-7 301-7C436-7 539 75 539 247Z"  horiz-adv-x="603" vert-adv-y="1000"  />

      
      <glyph glyph-name="uni4b" unicode="&#x4b;" d="M565 0L687 0L521 258C479 324 456 348 426 358C451 371 473 394 514 453L673 700L550 700L414 487C375 428 358 407 298 407L217 407L217 700L109 700L109 0L217 0L217 303L306 303C366 303 383 283 421 223Z"  horiz-adv-x="732" vert-adv-y="1000"  />

      
      <glyph glyph-name="uni0136" unicode="&#x0136;" d="M673 700L550 700L414 487C375 428 358 407 298 407L217 407L217 700L109 700L109 0L217 0L217 303L306 303C366 303 383 283 421 223L565 0L687 0L521 258C479 324 456 348 426 358C451 371 473 394 514 453ZM331-200L445-69L333-69L254-200Z"  horiz-adv-x="732" vert-adv-y="1000"  />

      
      <glyph glyph-name="uni4c" unicode="&#x4c;" d="M554 0L554 102L217 102L217 700L109 700L109 0Z"  horiz-adv-x="598" vert-adv-y="1000"  />

      
      <glyph glyph-name="uni0139" unicode="&#x0139;" d="M328 750L442 882L330 882L251 750ZM554 0L554 102L217 102L217 700L109 700L109 0Z"  horiz-adv-x="598" vert-adv-y="1000"  />

      
      <glyph glyph-name="uni013D" unicode="&#x013D;" d="M554 0L554 102L217 102L217 700L109 700L109 0ZM440 569L554 700L442 700L363 569Z"  horiz-adv-x="598" vert-adv-y="1000"  />

      
      <glyph glyph-name="uni013B" unicode="&#x013B;" d="M554 0L554 102L217 102L217 700L109 700L109 0ZM287-200L401-69L289-69L210-200Z"  horiz-adv-x="598" vert-adv-y="1000"  />

      
      <glyph glyph-name="uni013F" unicode="&#x013F;" d="M554 0L554 102L217 102L217 700L109 700L109 0ZM492 296C528 296 553 324 553 357C553 390 528 418 492 418C456 418 430 390 430 357C430 324 456 296 492 296Z"  horiz-adv-x="598" vert-adv-y="1000"  />

      
      <glyph glyph-name="uni0141" unicode="&#x0141;" d="M614 102L277 102L277 411L336 437L336 500L277 474L277 700L169 700L169 426L109 400L109 337L169 363L169 0L614 0Z"  horiz-adv-x="658" vert-adv-y="1000"  />

      
      <glyph glyph-name="uni4d" unicode="&#x4d;" d="M786 0L786 700L724 700L443 345L162 700L99 700L99 0L207 0L207 498L443 202L678 498L678 0Z"  horiz-adv-x="895" vert-adv-y="1000"  />

      
      <glyph glyph-name="uni4e" unicode="&#x4e;" d="M640 0L640 700L532 700L532 206L162 700L99 700L99 0L207 0L207 494L577 0Z"  horiz-adv-x="739" vert-adv-y="1000"  />

      
      <glyph glyph-name="uni0143" unicode="&#x0143;" d="M375 750L489 882L377 882L298 750ZM640 0L640 700L532 700L532 206L162 700L99 700L99 0L207 0L207 494L577 0Z"  horiz-adv-x="739" vert-adv-y="1000"  />

      
      <glyph glyph-name="uni0147" unicode="&#x0147;" d="M364 826L297 884L218 884L315 750L412 750L509 884L430 884ZM640 0L640 700L532 700L532 206L162 700L99 700L99 0L207 0L207 494L577 0Z"  horiz-adv-x="739" vert-adv-y="1000"  />

      
      <glyph glyph-name="uni0145" unicode="&#x0145;" d="M640 0L640 700L532 700L532 206L162 700L99 700L99 0L207 0L207 494L577 0ZM335-200L449-69L337-69L258-200Z"  horiz-adv-x="739" vert-adv-y="1000"  />

      
      <glyph glyph-name="uni014A" unicode="&#x014A;" d="M640 700L532 700L532 206L162 700L99 700L99 0L207 0L207 494L540 49L540 26C540-80 495-99 426-99L417-99L416-190L431-191C557-198 640-122 640 30Z"  horiz-adv-x="739" vert-adv-y="1000"  />

      
      <glyph glyph-name="unid1" unicode="&#xd1;" d="M305 866C277 864 256 846 243 811L220 750L268 750L275 771C282 791 290 801 306 802C319 803 332 798 344 789L385 756C398 745 417 738 439 739C467 741 489 759 502 795L525 856L477 856L470 835C462 814 453 804 436 804C423 803 411 808 400 817L360 849C346 860 327 868 305 866ZM640 0L640 700L532 700L532 206L162 700L99 700L99 0L207 0L207 494L577 0Z"  horiz-adv-x="739" vert-adv-y="1000"  />

      
      <glyph glyph-name="uni4f" unicode="&#x4f;" d="M419 707C222 707 63 547 63 350C63 152 222-7 419-7C616-7 776 152 776 350C776 547 616 707 419 707ZM419 605C558 605 668 498 668 350C668 201 558 95 419 95C280 95 171 201 171 350C171 498 280 605 419 605Z"  horiz-adv-x="840" vert-adv-y="1000"  />

      
      <glyph glyph-name="unid3" unicode="&#xd3;" d="M431 750L545 882L433 882L354 750ZM419 707C222 707 63 547 63 350C63 152 222-7 419-7C616-7 776 152 776 350C776 547 616 707 419 707ZM419 605C558 605 668 498 668 350C668 201 558 95 419 95C280 95 171 201 171 350C171 498 280 605 419 605Z"  horiz-adv-x="840" vert-adv-y="1000"  />

      
      <glyph glyph-name="uni01D1" unicode="&#x01D1;" d="M468 750L565 884L486 884L420 825L353 883L274 883L371 750ZM419 707C222 707 63 547 63 350C63 152 222-7 419-7C616-7 776 152 776 350C776 547 616 707 419 707ZM419 605C558 605 668 498 668 350C668 201 558 95 419 95C280 95 171 201 171 350C171 498 280 605 419 605Z"  horiz-adv-x="840" vert-adv-y="1000"  />

      
      <glyph glyph-name="unid4" unicode="&#xd4;" d="M565 750L468 884L371 884L274 750L353 750L420 808L486 750ZM419 707C222 707 63 547 63 350C63 152 222-7 419-7C616-7 776 152 776 350C776 547 616 707 419 707ZM419 605C558 605 668 498 668 350C668 201 558 95 419 95C280 95 171 201 171 350C171 498 280 605 419 605Z"  horiz-adv-x="840" vert-adv-y="1000"  />

      
      <glyph glyph-name="unid6" unicode="&#xd6;" d="M315 750C348 750 374 774 374 804C374 833 348 857 315 857C281 857 255 833 255 804C255 774 281 750 315 750ZM526 750C559 750 585 774 585 804C585 833 559 857 526 857C492 857 466 833 466 804C466 774 492 750 526 750ZM419 707C222 707 63 547 63 350C63 152 222-7 419-7C616-7 776 152 776 350C776 547 616 707 419 707ZM419 605C558 605 668 498 668 350C668 201 558 95 419 95C280 95 171 201 171 350C171 498 280 605 419 605Z"  horiz-adv-x="840" vert-adv-y="1000"  />

      
      <glyph glyph-name="unid2" unicode="&#xd2;" d="M403 882L291 882L405 750L482 750ZM419 707C222 707 63 547 63 350C63 152 222-7 419-7C616-7 776 152 776 350C776 547 616 707 419 707ZM419 605C558 605 668 498 668 350C668 201 558 95 419 95C280 95 171 201 171 350C171 498 280 605 419 605Z"  horiz-adv-x="840" vert-adv-y="1000"  />

      
      <glyph glyph-name="uni0150" unicode="&#x0150;" d="M363 750L477 882L365 882L286 750ZM519 750L633 882L521 882L442 750ZM419 707C222 707 63 547 63 350C63 152 222-7 419-7C616-7 776 152 776 350C776 547 616 707 419 707ZM419 605C558 605 668 498 668 350C668 201 558 95 419 95C280 95 171 201 171 350C171 498 280 605 419 605Z"  horiz-adv-x="840" vert-adv-y="1000"  />

      
      <glyph glyph-name="uni014C" unicode="&#x014C;" d="M549 750L549 825L291 825L291 750ZM419 707C222 707 63 547 63 350C63 152 222-7 419-7C616-7 776 152 776 350C776 547 616 707 419 707ZM419 605C558 605 668 498 668 350C668 201 558 95 419 95C280 95 171 201 171 350C171 498 280 605 419 605Z"  horiz-adv-x="840" vert-adv-y="1000"  />

      
      <glyph glyph-name="unid8" unicode="&#xd8;" d="M776 700L709 700L643 628C581 677 504 707 419 707C222 707 63 547 63 350C63 255 100 169 160 105L63 0L130 0L196 71C257 22 334-7 419-7C616-7 776 152 776 350C776 445 739 531 679 595ZM171 350C171 498 280 605 419 605C478 605 531 586 573 553L230 181C193 225 171 283 171 350ZM668 350C668 201 558 95 419 95C360 95 307 114 265 147L609 519C646 475 668 417 668 350Z"  horiz-adv-x="840" vert-adv-y="1000"  />

      
      <glyph glyph-name="unid5" unicode="&#xd5;" d="M572 856L524 856L517 835C509 814 500 804 483 804C470 803 458 808 447 817L407 849C393 860 374 868 352 866C324 864 303 846 290 811L267 750L315 750L322 771C329 791 337 801 353 802C366 803 379 798 391 789L432 756C445 745 464 738 486 739C514 741 536 759 549 795ZM419 707C222 707 63 547 63 350C63 152 222-7 419-7C616-7 776 152 776 350C776 547 616 707 419 707ZM419 605C558 605 668 498 668 350C668 201 558 95 419 95C280 95 171 201 171 350C171 498 280 605 419 605Z"  horiz-adv-x="840" vert-adv-y="1000"  />

      
      <glyph glyph-name="uni0152" unicode="&#x0152;" d="M776 404L776 598L1123 598L1123 700L668 700L668 574C617 653 524 707 419 707C222 707 63 547 63 350C63 152 222-7 419-7C524-7 617 47 668 126L668 0L1123 0L1123 102L776 102L776 302L1099 302L1099 404ZM419 95C280 95 171 201 171 350C171 498 280 605 419 605C558 605 668 498 668 350C668 201 558 95 419 95Z"  horiz-adv-x="1178" vert-adv-y="1000"  />

      
      <glyph glyph-name="uni50" unicode="&#x50;" d="M109 700L109 0L217 0L217 174L335 174C522 174 643 279 643 437C643 594 522 700 335 700ZM217 275L217 598L342 598C447 598 541 548 541 437C541 322 447 275 342 275Z"  horiz-adv-x="707" vert-adv-y="1000"  />

      
      <glyph glyph-name="unide" unicode="&#xde;" d="M217 623L217 700L109 700L109 0L217 0L217 96L335 96C522 96 643 202 643 360C643 517 522 623 335 623ZM217 198L217 521L342 521C447 521 541 471 541 360C541 245 447 198 342 198Z"  horiz-adv-x="707" vert-adv-y="1000"  />

      
      <glyph glyph-name="uni51" unicode="&#x51;" d="M419 707C222 707 63 547 63 350C63 152 222-7 419-7L803-7L803 95L637 95C719 146 776 241 776 350C776 547 616 707 419 707ZM419 605C558 605 668 498 668 350C668 201 558 95 419 95C280 95 171 201 171 350C171 498 280 605 419 605Z"  horiz-adv-x="867" vert-adv-y="1000"  />

      
      <glyph glyph-name="uni52" unicode="&#x52;" d="M109 700L109 0L217 0L217 184L327 184C399 182 424 167 480 80L532 0L653 0L588 100C545 167 513 202 478 219C579 254 643 331 643 442C643 594 528 700 341 700ZM217 598L350 598C455 598 541 548 541 442C541 332 455 285 350 285L217 285Z"  horiz-adv-x="698" vert-adv-y="1000"  />

      
      <glyph glyph-name="uni0154" unicode="&#x0154;" d="M344 750L458 882L346 882L267 750ZM109 700L109 0L217 0L217 184L327 184C399 182 424 167 480 80L532 0L653 0L588 100C545 167 513 202 478 219C579 254 643 331 643 442C643 594 528 700 341 700ZM217 598L350 598C455 598 541 548 541 442C541 332 455 285 350 285L217 285Z"  horiz-adv-x="698" vert-adv-y="1000"  />

      
      <glyph glyph-name="uni0158" unicode="&#x0158;" d="M401 750L498 884L419 884L353 826L286 883L207 883L304 750ZM109 700L109 0L217 0L217 184L327 184C399 182 424 167 480 80L532 0L653 0L588 100C545 167 513 202 478 219C579 254 643 331 643 442C643 594 528 700 341 700ZM217 598L350 598C455 598 541 548 541 442C541 332 455 285 350 285L217 285Z"  horiz-adv-x="698" vert-adv-y="1000"  />

      
      <glyph glyph-name="uni0156" unicode="&#x0156;" d="M109 700L109 0L217 0L217 184L327 184C399 182 424 167 480 80L532 0L653 0L588 100C545 167 513 202 478 219C579 254 643 331 643 442C643 594 528 700 341 700ZM217 598L350 598C455 598 541 548 541 442C541 332 455 285 350 285L217 285ZM313-200L427-69L315-69L236-200Z"  horiz-adv-x="698" vert-adv-y="1000"  />

      
      <glyph glyph-name="uni53" unicode="&#x53;" d="M321 707C184 706 71 628 71 502C71 388 161 335 298 319L364 311C450 300 506 274 506 204C506 136 440 95 349 94L344 94C232 94 156 147 124 205L54 140C103 58 204-7 344-7L349-7C497-6 614 74 614 204C614 340 519 394 378 411L312 419C230 430 179 451 179 505C179 577 260 606 321 606L330 606C392 606 471 575 521 526L591 591C526 661 429 707 330 707Z"  horiz-adv-x="669" vert-adv-y="1000"  />

      
      <glyph glyph-name="uni015A" unicode="&#x015A;" d="M335 750L449 882L337 882L258 750ZM321 707C184 706 71 628 71 502C71 388 161 335 298 319L364 311C450 300 506 274 506 204C506 136 440 95 349 94L344 94C232 94 156 147 124 205L54 140C103 58 204-7 344-7L349-7C497-6 614 74 614 204C614 340 519 394 378 411L312 419C230 430 179 451 179 505C179 577 260 606 321 606L330 606C392 606 471 575 521 526L591 591C526 661 429 707 330 707Z"  horiz-adv-x="669" vert-adv-y="1000"  />

      
      <glyph glyph-name="uni0160" unicode="&#x0160;" d="M376 750L473 884L394 884L328 826L261 883L182 883L279 750ZM321 707C184 706 71 628 71 502C71 388 161 335 298 319L364 311C450 300 506 274 506 204C506 136 440 95 349 94L344 94C232 94 156 147 124 205L54 140C103 58 204-7 344-7L349-7C497-6 614 74 614 204C614 340 519 394 378 411L312 419C230 430 179 451 179 505C179 577 260 606 321 606L330 606C392 606 471 575 521 526L591 591C526 661 429 707 330 707Z"  horiz-adv-x="669" vert-adv-y="1000"  />

      
      <glyph glyph-name="uni015E" unicode="&#x015E;" d="M347-7L349-7C497-6 614 74 614 204C614 340 519 394 378 411L312 419C230 430 179 451 179 505C179 577 260 606 321 606L330 606C392 606 471 575 521 526L591 591C526 661 429 707 330 707L321 707C184 706 71 628 71 502C71 388 161 335 298 319L364 311C450 300 506 274 506 204C506 136 440 95 349 94L344 94C232 94 156 147 124 205L54 140C99 64 190 3 314-6L292-75C335-56 356-70 356-95C356-124 320-135 284-113L284-143C359-186 420-154 420-98C420-42 374-27 338-38Z"  horiz-adv-x="669" vert-adv-y="1000"  />

      
      <glyph glyph-name="uni0218" unicode="&#x0218;" d="M321 707C184 706 71 628 71 502C71 388 161 335 298 319L364 311C450 300 506 274 506 204C506 136 440 95 349 94L344 94C232 94 156 147 124 205L54 140C103 58 204-7 344-7L349-7C497-6 614 74 614 204C614 340 519 394 378 411L312 419C230 430 179 451 179 505C179 577 260 606 321 606L330 606C392 606 471 575 521 526L591 591C526 661 429 707 330 707ZM306-200L420-69L308-69L229-200Z"  horiz-adv-x="669" vert-adv-y="1000"  />

      
      <glyph glyph-name="uni54" unicode="&#x54;" d="M356 598L561 598L561 700L44 700L44 598L248 598L248 0L356 0Z"  horiz-adv-x="606" vert-adv-y="1000"  />

      
      <glyph glyph-name="uni0166" unicode="&#x0166;" d="M356 598L561 598L561 700L44 700L44 598L248 598L248 401L173 401L173 327L248 327L248 0L356 0L356 327L432 327L432 401L356 401Z"  horiz-adv-x="606" vert-adv-y="1000"  />

      
      <glyph glyph-name="uni0164" unicode="&#x0164;" d="M353 750L450 884L371 884L305 826L238 883L159 883L256 750ZM356 598L561 598L561 700L44 700L44 598L248 598L248 0L356 0Z"  horiz-adv-x="606" vert-adv-y="1000"  />

      
      <glyph glyph-name="uni0162" unicode="&#x0162;" d="M314 0L356 0L356 598L561 598L561 700L44 700L44 598L248 598L248 0L281 0L257-75C300-56 321-70 321-95C321-124 285-135 249-113L249-143C324-186 385-154 385-98C385-42 339-27 303-38Z"  horiz-adv-x="606" vert-adv-y="1000"  />

      
      <glyph glyph-name="uni021A" unicode="&#x021A;" d="M356 598L561 598L561 700L44 700L44 598L248 598L248 0L356 0ZM272-200L386-69L274-69L195-200Z"  horiz-adv-x="606" vert-adv-y="1000"  />

      
      <glyph glyph-name="uni55" unicode="&#x55;" d="M678 700L570 700L570 300C570 158 493 95 393 95C294 95 217 158 217 300L217 700L109 700L109 297C109 101 236-7 393-7C551-7 678 101 678 297Z"  horiz-adv-x="777" vert-adv-y="1000"  />

      
      <glyph glyph-name="unida" unicode="&#xda;" d="M400 750L514 882L402 882L323 750ZM678 700L570 700L570 300C570 158 493 95 393 95C294 95 217 158 217 300L217 700L109 700L109 297C109 101 236-7 393-7C551-7 678 101 678 297Z"  horiz-adv-x="777" vert-adv-y="1000"  />

      
      <glyph glyph-name="uni01D3" unicode="&#x01D3;" d="M442 750L539 884L460 884L394 826L327 883L248 883L345 750ZM678 700L570 700L570 300C570 158 493 95 393 95C294 95 217 158 217 300L217 700L109 700L109 297C109 101 236-7 393-7C551-7 678 101 678 297Z"  horiz-adv-x="777" vert-adv-y="1000"  />

      
      <glyph glyph-name="unidb" unicode="&#xdb;" d="M460 750L539 750L442 884L345 884L248 750L327 750L394 808ZM678 700L570 700L570 300C570 158 493 95 393 95C294 95 217 158 217 300L217 700L109 700L109 297C109 101 236-7 393-7C551-7 678 101 678 297Z"  horiz-adv-x="777" vert-adv-y="1000"  />

      
      <glyph glyph-name="unidc" unicode="&#xdc;" d="M289 750C322 750 348 774 348 804C348 833 322 857 289 857C255 857 229 833 229 804C229 774 255 750 289 750ZM500 750C533 750 559 774 559 804C559 833 533 857 500 857C466 857 440 833 440 804C440 774 466 750 500 750ZM678 700L570 700L570 300C570 158 493 95 393 95C294 95 217 158 217 300L217 700L109 700L109 297C109 101 236-7 393-7C551-7 678 101 678 297Z"  horiz-adv-x="777" vert-adv-y="1000"  />

      
      <glyph glyph-name="uni01D7" unicode="&#x01D7;" d="M399 889L513 1020L401 1020L322 889ZM289 750C322 750 348 774 348 804C348 833 322 857 289 857C255 857 229 833 229 804C229 774 255 750 289 750ZM500 750C533 750 559 774 559 804C559 833 533 857 500 857C466 857 440 833 440 804C440 774 466 750 500 750ZM678 700L570 700L570 300C570 158 493 95 393 95C294 95 217 158 217 300L217 700L109 700L109 297C109 101 236-7 393-7C551-7 678 101 678 297Z"  horiz-adv-x="777" vert-adv-y="1000"  />

      
      <glyph glyph-name="uni01D9" unicode="&#x01D9;" d="M393 964L326 1023L247 1023L344 889L441 889L538 1022L459 1022ZM289 857C255 857 229 833 229 804C229 774 255 750 289 750C322 750 348 774 348 804C348 833 322 857 289 857ZM500 857C466 857 440 833 440 804C440 774 466 750 500 750C533 750 559 774 559 804C559 833 533 857 500 857ZM678 700L570 700L570 300C570 158 493 95 393 95C294 95 217 158 217 300L217 700L109 700L109 297C109 101 236-7 393-7C551-7 678 101 678 297Z"  horiz-adv-x="777" vert-adv-y="1000"  />

      
      <glyph glyph-name="uni01DB" unicode="&#x01DB;" d="M384 1020L272 1020L386 889L463 889ZM289 750C322 750 348 774 348 804C348 833 322 857 289 857C255 857 229 833 229 804C229 774 255 750 289 750ZM500 750C533 750 559 774 559 804C559 833 533 857 500 857C466 857 440 833 440 804C440 774 466 750 500 750ZM678 700L570 700L570 300C570 158 493 95 393 95C294 95 217 158 217 300L217 700L109 700L109 297C109 101 236-7 393-7C551-7 678 101 678 297Z"  horiz-adv-x="777" vert-adv-y="1000"  />

      
      <glyph glyph-name="uni01D5" unicode="&#x01D5;" d="M523 889L523 963L265 963L265 889ZM289 750C322 750 348 774 348 804C348 833 322 857 289 857C255 857 229 833 229 804C229 774 255 750 289 750ZM500 750C533 750 559 774 559 804C559 833 533 857 500 857C466 857 440 833 440 804C440 774 466 750 500 750ZM678 700L570 700L570 300C570 158 493 95 393 95C294 95 217 158 217 300L217 700L109 700L109 297C109 101 236-7 393-7C551-7 678 101 678 297Z"  horiz-adv-x="777" vert-adv-y="1000"  />

      
      <glyph glyph-name="unid9" unicode="&#xd9;" d="M381 882L269 882L383 750L460 750ZM678 700L570 700L570 300C570 158 493 95 393 95C294 95 217 158 217 300L217 700L109 700L109 297C109 101 236-7 393-7C551-7 678 101 678 297Z"  horiz-adv-x="777" vert-adv-y="1000"  />

      
      <glyph glyph-name="uni0170" unicode="&#x0170;" d="M311 750L425 882L313 882L234 750ZM466 750L580 882L468 882L389 750ZM678 700L570 700L570 300C570 158 493 95 393 95C294 95 217 158 217 300L217 700L109 700L109 297C109 101 236-7 393-7C551-7 678 101 678 297Z"  horiz-adv-x="777" vert-adv-y="1000"  />

      
      <glyph glyph-name="uni016A" unicode="&#x016A;" d="M522 750L522 825L264 825L264 750ZM678 700L570 700L570 300C570 158 493 95 393 95C294 95 217 158 217 300L217 700L109 700L109 297C109 101 236-7 393-7C551-7 678 101 678 297Z"  horiz-adv-x="777" vert-adv-y="1000"  />

      
      <glyph glyph-name="uni0172" unicode="&#x0172;" d="M678 700L570 700L570 300C570 158 493 95 393 95C294 95 217 158 217 300L217 700L109 700L109 297C109 101 236-7 393-7L411-7C368-27 348-53 348-86C348-141 397-164 450-164L457-164L457-101L445-101C415-101 393-87 393-61C393-38 407-20 455-1C583 24 678 127 678 297Z"  horiz-adv-x="777" vert-adv-y="1000"  />

      
      <glyph glyph-name="uni016E" unicode="&#x016E;" d="M393 927C344 927 305 887 305 839C305 790 344 750 393 750C442 750 482 790 482 839C482 887 442 927 393 927ZM394 876C415 876 430 859 430 839C430 818 415 801 394 801C372 801 357 818 357 839C357 859 372 876 394 876ZM678 700L570 700L570 300C570 158 493 95 393 95C294 95 217 158 217 300L217 700L109 700L109 297C109 101 236-7 393-7C551-7 678 101 678 297Z"  horiz-adv-x="777" vert-adv-y="1000"  />

      
      <glyph glyph-name="uni56" unicode="&#x56;" d="M398 0L687 700L567 700L366 199L163 700L44 700L335 0Z"  horiz-adv-x="732" vert-adv-y="1000"  />

      
      <glyph glyph-name="uni57" unicode="&#x57;" d="M841 0L1121 700L1002 700L811 200L614 700L551 700L354 200L163 700L44 700L324 0L387 0L583 481L779 0Z"  horiz-adv-x="1166" vert-adv-y="1000"  />

      
      <glyph glyph-name="uni1E82" unicode="&#x1E82;" d="M589 750L703 882L591 882L512 750ZM841 0L1121 700L1002 700L811 200L614 700L551 700L354 200L163 700L44 700L324 0L387 0L583 481L779 0Z"  horiz-adv-x="1166" vert-adv-y="1000"  />

      
      <glyph glyph-name="uni0174" unicode="&#x0174;" d="M650 750L729 750L632 884L535 884L438 750L517 750L584 808ZM841 0L1121 700L1002 700L811 200L614 700L551 700L354 200L163 700L44 700L324 0L387 0L583 481L779 0Z"  horiz-adv-x="1166" vert-adv-y="1000"  />

      
      <glyph glyph-name="uni1E84" unicode="&#x1E84;" d="M478 750C511 750 537 774 537 804C537 833 511 857 478 857C444 857 418 833 418 804C418 774 444 750 478 750ZM689 750C722 750 748 774 748 804C748 833 722 857 689 857C655 857 629 833 629 804C629 774 655 750 689 750ZM841 0L1121 700L1002 700L811 200L614 700L551 700L354 200L163 700L44 700L324 0L387 0L583 481L779 0Z"  horiz-adv-x="1166" vert-adv-y="1000"  />

      
      <glyph glyph-name="uni1E80" unicode="&#x1E80;" d="M573 882L461 882L575 750L652 750ZM841 0L1121 700L1002 700L811 200L614 700L551 700L354 200L163 700L44 700L324 0L387 0L583 481L779 0Z"  horiz-adv-x="1166" vert-adv-y="1000"  />

      
      <glyph glyph-name="uni58" unicode="&#x58;" d="M352 264L538 0L662 0L414 358L648 700L524 700L355 457L182 700L58 700L292 363L44 0L168 0Z"  horiz-adv-x="707" vert-adv-y="1000"  />

      
      <glyph glyph-name="uni59" unicode="&#x59;" d="M410 0L410 237L668 700L545 700L356 369L167 700L44 700L302 237L302 0Z"  horiz-adv-x="713" vert-adv-y="1000"  />

      
      <glyph glyph-name="unidd" unicode="&#xdd;" d="M364 750L478 882L366 882L287 750ZM410 0L410 237L668 700L545 700L356 369L167 700L44 700L302 237L302 0Z"  horiz-adv-x="713" vert-adv-y="1000"  />

      
      <glyph glyph-name="uni0176" unicode="&#x0176;" d="M423 750L502 750L405 884L308 884L211 750L290 750L357 808ZM410 0L410 237L668 700L545 700L356 369L167 700L44 700L302 237L302 0Z"  horiz-adv-x="713" vert-adv-y="1000"  />

      
      <glyph glyph-name="uni0178" unicode="&#x0178;" d="M251 750C284 750 310 774 310 804C310 833 284 857 251 857C217 857 191 833 191 804C191 774 217 750 251 750ZM463 750C496 750 522 774 522 804C522 833 496 857 463 857C429 857 403 833 403 804C403 774 429 750 463 750ZM410 0L410 237L668 700L545 700L356 369L167 700L44 700L302 237L302 0Z"  horiz-adv-x="713" vert-adv-y="1000"  />

      
      <glyph glyph-name="uni1EF2" unicode="&#x1EF2;" d="M338 882L226 882L340 750L417 750ZM410 0L410 237L668 700L545 700L356 369L167 700L44 700L302 237L302 0Z"  horiz-adv-x="713" vert-adv-y="1000"  />

      
      <glyph glyph-name="uni5a" unicode="&#x5a;" d="M572 0L572 102L205 102L564 638L564 700L84 700L84 598L413 598L54 62L54 0Z"  horiz-adv-x="627" vert-adv-y="1000"  />

      
      <glyph glyph-name="uni0179" unicode="&#x0179;" d="M321 750L435 882L323 882L244 750ZM572 0L572 102L205 102L564 638L564 700L84 700L84 598L413 598L54 62L54 0Z"  horiz-adv-x="627" vert-adv-y="1000"  />

      
      <glyph glyph-name="uni017D" unicode="&#x017D;" d="M364 750L461 884L382 884L316 826L249 883L170 883L267 750ZM572 0L572 102L205 102L564 638L564 700L84 700L84 598L413 598L54 62L54 0Z"  horiz-adv-x="627" vert-adv-y="1000"  />

      
      <glyph glyph-name="uni017B" unicode="&#x017B;" d="M310 750C343 750 369 774 369 804C369 833 343 857 310 857C276 857 250 833 250 804C250 774 276 750 310 750ZM572 0L572 102L205 102L564 638L564 700L84 700L84 598L413 598L54 62L54 0Z"  horiz-adv-x="627" vert-adv-y="1000"  />

      
      <glyph glyph-name="uni61" unicode="&#x61;" d="M564 0L564 500L496 500L490 408C453 467 385 507 306 507C164 507 59 392 59 250C59 108 164-6 306-6C385-6 453 33 490 92L496 0ZM315 90C232 90 159 155 159 250C159 345 232 411 315 411C398 411 472 345 472 250C472 155 398 90 315 90Z"  horiz-adv-x="653" vert-adv-y="1000"  />

      
      <glyph glyph-name="unie1" unicode="&#xe1;" d="M331 553L445 685L333 685L254 553ZM564 0L564 500L496 500L490 408C453 467 385 507 306 507C164 507 59 392 59 250C59 108 164-6 306-6C385-6 453 33 490 92L496 0ZM315 90C232 90 159 155 159 250C159 345 232 411 315 411C398 411 472 345 472 250C472 155 398 90 315 90Z"  horiz-adv-x="653" vert-adv-y="1000"  />

      
      <glyph glyph-name="uni0103" unicode="&#x0103;" d="M395 694C395 654 360 624 315 624C270 624 235 654 235 694L165 694C165 613 232 553 315 553C398 553 465 613 465 694ZM306 507C164 507 59 392 59 250C59 108 164-6 306-6C385-6 453 33 490 92L496 0L564 0L564 500L496 500L490 408C453 467 385 507 306 507ZM315 411C398 411 472 345 472 250C472 155 398 90 315 90C232 90 159 155 159 250C159 345 232 411 315 411Z"  horiz-adv-x="653" vert-adv-y="1000"  />

      
      <glyph glyph-name="uni01CE" unicode="&#x01CE;" d="M364 553L461 687L382 687L316 629L249 687L170 687L267 553ZM564 0L564 500L496 500L490 408C453 467 385 507 306 507C164 507 59 392 59 250C59 108 164-6 306-6C385-6 453 33 490 92L496 0ZM315 90C232 90 159 155 159 250C159 345 232 411 315 411C398 411 472 345 472 250C472 155 398 90 315 90Z"  horiz-adv-x="653" vert-adv-y="1000"  />

      
      <glyph glyph-name="unie2" unicode="&#xe2;" d="M381 553L460 553L363 687L266 687L169 554L248 554L315 612ZM564 0L564 500L496 500L490 408C453 467 385 507 306 507C164 507 59 392 59 250C59 108 164-6 306-6C385-6 453 33 490 92L496 0ZM315 90C232 90 159 155 159 250C159 345 232 411 315 411C398 411 472 345 472 250C472 155 398 90 315 90Z"  horiz-adv-x="653" vert-adv-y="1000"  />

      
      <glyph glyph-name="unie4" unicode="&#xe4;" d="M210 553C243 553 269 577 269 607C269 637 243 660 210 660C176 660 150 637 150 607C150 577 176 553 210 553ZM422 553C455 553 481 577 481 607C481 637 455 660 422 660C388 660 362 637 362 607C362 577 388 553 422 553ZM564 0L564 500L496 500L490 408C453 467 385 507 306 507C164 507 59 392 59 250C59 108 164-6 306-6C385-6 453 33 490 92L496 0ZM315 90C232 90 159 155 159 250C159 345 232 411 315 411C398 411 472 345 472 250C472 155 398 90 315 90Z"  horiz-adv-x="653" vert-adv-y="1000"  />

      
      <glyph glyph-name="unie0" unicode="&#xe0;" d="M314 685L202 685L316 553L393 553ZM564 0L564 500L496 500L490 408C453 467 385 507 306 507C164 507 59 392 59 250C59 108 164-6 306-6C385-6 453 33 490 92L496 0ZM315 90C232 90 159 155 159 250C159 345 232 411 315 411C398 411 472 345 472 250C472 155 398 90 315 90Z"  horiz-adv-x="653" vert-adv-y="1000"  />

      
      <glyph glyph-name="uni0101" unicode="&#x0101;" d="M454 553L454 628L196 628L196 553ZM564 0L564 500L496 500L490 408C453 467 385 507 306 507C164 507 59 392 59 250C59 108 164-6 306-6C385-6 453 33 490 92L496 0ZM315 90C232 90 159 155 159 250C159 345 232 411 315 411C398 411 472 345 472 250C472 155 398 90 315 90Z"  horiz-adv-x="653" vert-adv-y="1000"  />

      
      <glyph glyph-name="uni0105" unicode="&#x0105;" d="M564 500L496 500L490 408C453 467 385 507 306 507C164 507 59 392 59 250C59 108 164-6 306-6C385-6 453 33 490 92L496 0L532 0C478-22 454-49 454-86C454-141 503-164 556-164L563-164L563-101L551-101C521-101 499-87 499-61C499-38 514-19 564 0ZM315 90C232 90 159 155 159 250C159 345 232 411 315 411C398 411 472 345 472 250C472 155 398 90 315 90Z"  horiz-adv-x="653" vert-adv-y="1000"  />

      
      <glyph glyph-name="unie5" unicode="&#xe5;" d="M315 731C266 731 227 691 227 642C227 593 266 553 315 553C364 553 404 593 404 642C404 691 364 731 315 731ZM316 680C337 680 352 662 352 642C352 622 337 604 316 604C294 604 279 622 279 642C279 662 294 680 316 680ZM564 0L564 500L496 500L490 408C453 467 385 507 306 507C164 507 59 392 59 250C59 108 164-6 306-6C385-6 453 33 490 92L496 0ZM315 90C232 90 159 155 159 250C159 345 232 411 315 411C398 411 472 345 472 250C472 155 398 90 315 90Z"  horiz-adv-x="653" vert-adv-y="1000"  />

      
      <glyph glyph-name="unie3" unicode="&#xe3;" d="M471 659L423 659L416 638C408 618 399 607 382 607C369 606 357 612 346 620L306 653C292 664 273 672 251 670C223 668 202 650 189 614L166 553L214 553L221 574C228 594 236 604 252 605C265 607 278 601 290 593L331 560C344 549 363 541 385 543C413 545 435 563 448 599ZM564 0L564 500L496 500L490 408C453 467 385 507 306 507C164 507 59 392 59 250C59 108 164-6 306-6C385-6 453 33 490 92L496 0ZM315 90C232 90 159 155 159 250C159 345 232 411 315 411C398 411 472 345 472 250C472 155 398 90 315 90Z"  horiz-adv-x="653" vert-adv-y="1000"  />

      
      <glyph glyph-name="unie6" unicode="&#xe6;" d="M306 507C164 507 59 392 59 250C59 108 164-6 306-6C385-6 453 33 490 92L496 0L564 0L564 72C598 23 657-6 731-6C818-6 891 29 946 71L892 129C845 101 789 85 731 85C642 85 575 136 575 224L956 224C968 262 966 324 947 366C910 453 833 507 725 507C655 507 597 475 564 428L564 500L496 500L490 408C453 467 385 507 306 507ZM726 416C788 416 833 383 854 337C862 322 866 303 866 288L579 288C583 356 641 416 726 416ZM315 411C398 411 472 345 472 250C472 155 398 90 315 90C232 90 159 155 159 250C159 345 232 411 315 411Z"  horiz-adv-x="1018" vert-adv-y="1000"  />

      
      <glyph glyph-name="uni62" unicode="&#x62;" d="M189 700L89 700L89 0L157 0L163 92C200 33 268-6 347-6C489-6 594 108 594 250C594 392 489 507 347 507C280 507 221 474 189 425ZM339 411C422 411 495 345 495 250C495 155 422 90 339 90C256 90 182 155 182 250C182 345 256 411 339 411Z"  horiz-adv-x="653" vert-adv-y="1000"  />

      
      <glyph glyph-name="uni63" unicode="&#x63;" d="M315 506C173 506 59 392 59 250C59 108 173-6 315-6C394-6 465 30 512 86L452 151C411 109 367 90 315 90C232 90 159 155 159 250C159 345 232 410 315 410C367 410 411 392 452 349L512 414C465 470 394 506 315 506Z"  horiz-adv-x="566" vert-adv-y="1000"  />

      
      <glyph glyph-name="uni0107" unicode="&#x0107;" d="M306 553L420 685L308 685L229 553ZM315 506C173 506 59 392 59 250C59 108 173-6 315-6C394-6 465 30 512 86L452 151C411 109 367 90 315 90C232 90 159 155 159 250C159 345 232 410 315 410C367 410 411 392 452 349L512 414C465 470 394 506 315 506Z"  horiz-adv-x="566" vert-adv-y="1000"  />

      
      <glyph glyph-name="uni010D" unicode="&#x010D;" d="M363 553L460 687L381 687L315 629L248 687L169 687L266 553ZM315 506C173 506 59 392 59 250C59 108 173-6 315-6C394-6 465 30 512 86L452 151C411 109 367 90 315 90C232 90 159 155 159 250C159 345 232 410 315 410C367 410 411 392 452 349L512 414C465 470 394 506 315 506Z"  horiz-adv-x="566" vert-adv-y="1000"  />

      
      <glyph glyph-name="unie7" unicode="&#xe7;" d="M315 90C232 90 159 155 159 250C159 345 232 410 315 410C367 410 411 392 452 349L512 414C465 470 394 506 315 506C173 506 59 392 59 250C59 119 157 11 284-4L261-75C304-56 325-70 325-95C325-124 289-135 253-113L253-143C328-186 389-154 389-98C389-42 343-27 307-38L316-6C395-6 465 30 512 86L452 151C411 109 367 90 315 90Z"  horiz-adv-x="566" vert-adv-y="1000"  />

      
      <glyph glyph-name="uni010B" unicode="&#x010B;" d="M315 660C281 660 255 637 255 607C255 577 281 553 315 553C348 553 374 577 374 607C374 637 348 660 315 660ZM315 506C173 506 59 392 59 250C59 108 173-6 315-6C394-6 465 30 512 86L452 151C411 109 367 90 315 90C232 90 159 155 159 250C159 345 232 410 315 410C367 410 411 392 452 349L512 414C465 470 394 506 315 506Z"  horiz-adv-x="566" vert-adv-y="1000"  />

      
      <glyph glyph-name="uni64" unicode="&#x64;" d="M564 0L564 700L464 700L464 425C432 474 373 507 306 507C164 507 59 392 59 250C59 108 164-6 306-6C385-6 453 33 490 92L496 0ZM315 90C232 90 159 155 159 250C159 345 232 411 315 411C398 411 472 345 472 250C472 155 398 90 315 90Z"  horiz-adv-x="653" vert-adv-y="1000"  />

      
      <glyph glyph-name="unif0" unicode="&#xf0;" d="M561 661L525 700L483 663C443 695 390 713 325 713C235 713 162 682 107 636L164 575C213 604 263 623 325 622C361 622 390 615 413 600L351 545L386 506L449 562C464 536 472 501 472 459L472 390C442 449 374 490 298 490C156 490 59 380 59 243C59 107 161-8 316-8C461-8 572 99 572 258L572 459C572 525 554 582 521 625ZM315 88C230 88 159 153 159 243C159 333 232 398 315 398C399 398 472 333 472 243C472 153 402 88 315 88Z"  horiz-adv-x="661" vert-adv-y="1000"  />

      
      <glyph glyph-name="uni010F" unicode="&#x010F;" d="M564 0L564 700L464 700L464 425C432 474 373 507 306 507C164 507 59 392 59 250C59 108 164-6 306-6C385-6 453 33 490 92L496 0ZM673 569L787 700L675 700L596 569ZM315 90C232 90 159 155 159 250C159 345 232 411 315 411C398 411 472 345 472 250C472 155 398 90 315 90Z"  horiz-adv-x="876" vert-adv-y="1000"  />

      
      <glyph glyph-name="uni0111" unicode="&#x0111;" d="M633 555L633 629L564 629L564 700L464 700L464 629L395 629L395 555L464 555L464 425C432 474 373 507 306 507C164 507 59 392 59 250C59 108 164-6 306-6C385-6 453 33 490 92L496 0L564 0L564 555ZM315 90C232 90 159 155 159 250C159 345 232 411 315 411C398 411 472 345 472 250C472 155 398 90 315 90Z"  horiz-adv-x="722" vert-adv-y="1000"  />

      
      <glyph glyph-name="uni65" unicode="&#x65;" d="M312 507C157 507 59 392 59 250C59 102 164-6 318-6C405-6 478 29 533 71L479 129C432 101 376 85 318 85C229 85 162 136 162 224L543 224C555 262 553 324 534 366C497 453 420 507 312 507ZM313 416C375 416 420 383 441 337C449 322 453 303 453 288L166 288C170 356 228 416 313 416Z"  horiz-adv-x="605" vert-adv-y="1000"  />

      
      <glyph glyph-name="unie9" unicode="&#xe9;" d="M325 553L439 685L327 685L248 553ZM312 507C157 507 59 392 59 250C59 102 164-6 318-6C405-6 478 29 533 71L479 129C432 101 376 85 318 85C229 85 162 136 162 224L543 224C555 262 553 324 534 366C497 453 420 507 312 507ZM313 416C375 416 420 383 441 337C449 322 453 303 453 288L166 288C170 356 228 416 313 416Z"  horiz-adv-x="605" vert-adv-y="1000"  />

      
      <glyph glyph-name="uni011B" unicode="&#x011B;" d="M361 553L458 687L379 687L313 629L246 687L167 687L264 553ZM312 507C157 507 59 392 59 250C59 102 164-6 318-6C405-6 478 29 533 71L479 129C432 101 376 85 318 85C229 85 162 136 162 224L543 224C555 262 553 324 534 366C497 453 420 507 312 507ZM313 416C375 416 420 383 441 337C449 322 453 303 453 288L166 288C170 356 228 416 313 416Z"  horiz-adv-x="605" vert-adv-y="1000"  />

      
      <glyph glyph-name="uniea" unicode="&#xea;" d="M458 553L361 687L264 687L167 554L246 554L313 611L379 553ZM312 507C157 507 59 392 59 250C59 102 164-6 318-6C405-6 478 29 533 71L479 129C432 101 376 85 318 85C229 85 162 136 162 224L543 224C555 262 553 324 534 366C497 453 420 507 312 507ZM313 416C375 416 420 383 441 337C449 322 453 303 453 288L166 288C170 356 228 416 313 416Z"  horiz-adv-x="605" vert-adv-y="1000"  />

      
      <glyph glyph-name="unieb" unicode="&#xeb;" d="M208 661C174 661 148 637 148 607C148 577 174 553 208 553C241 553 267 577 267 607C267 637 241 661 208 661ZM420 661C386 661 360 637 360 607C360 577 386 553 420 553C453 553 479 577 479 607C479 637 453 661 420 661ZM312 507C157 507 59 392 59 250C59 102 164-6 318-6C405-6 478 29 533 71L479 129C432 101 376 85 318 85C229 85 162 136 162 224L543 224C555 262 553 324 534 366C497 453 420 507 312 507ZM313 416C375 416 420 383 441 337C449 322 453 303 453 288L166 288C170 356 228 416 313 416Z"  horiz-adv-x="605" vert-adv-y="1000"  />

      
      <glyph glyph-name="uni0117" unicode="&#x0117;" d="M313 660C279 660 253 637 253 607C253 577 279 553 313 553C346 553 372 577 372 607C372 637 346 660 313 660ZM312 507C157 507 59 392 59 250C59 102 164-6 318-6C405-6 478 29 533 71L479 129C432 101 376 85 318 85C229 85 162 136 162 224L543 224C555 262 553 324 534 366C497 453 420 507 312 507ZM313 416C375 416 420 383 441 337C449 322 453 303 453 288L166 288C170 356 228 416 313 416Z"  horiz-adv-x="605" vert-adv-y="1000"  />

      
      <glyph glyph-name="unie8" unicode="&#xe8;" d="M380 553L301 685L189 685L303 553ZM312 507C157 507 59 392 59 250C59 102 164-6 318-6C405-6 478 29 533 71L479 129C432 101 376 85 318 85C229 85 162 136 162 224L543 224C555 262 553 324 534 366C497 453 420 507 312 507ZM313 416C375 416 420 383 441 337C449 322 453 303 453 288L166 288C170 356 228 416 313 416Z"  horiz-adv-x="605" vert-adv-y="1000"  />

      
      <glyph glyph-name="uni0113" unicode="&#x0113;" d="M441 553L441 628L183 628L183 553ZM312 507C157 507 59 392 59 250C59 102 164-6 318-6C405-6 478 29 533 71L479 129C432 101 376 85 318 85C229 85 162 136 162 224L543 224C555 262 553 324 534 366C497 453 420 507 312 507ZM313 416C375 416 420 383 441 337C449 322 453 303 453 288L166 288C170 356 228 416 313 416Z"  horiz-adv-x="605" vert-adv-y="1000"  />

      
      <glyph glyph-name="uni0119" unicode="&#x0119;" d="M534 366C497 453 420 507 312 507C157 507 59 392 59 250C59 102 164-6 318-6L333-6C288-27 268-52 268-86C268-141 317-164 370-164L377-164L377-101L365-101C335-101 313-87 313-61C313-38 328-19 376-1C438 11 491 39 533 71L479 129C432 101 376 85 318 85C229 85 162 136 162 224L543 224C555 262 553 324 534 366ZM166 288C170 356 228 416 313 416C375 416 420 383 441 337C449 322 453 303 453 288Z"  horiz-adv-x="605" vert-adv-y="1000"  />

      
      <glyph glyph-name="uni66" unicode="&#x66;" d="M351 705L337 706C222 713 129 651 129 519L129 500L59 500L59 404L128 404L128-1L228-1L228 404L351 404L351 500L229 500L229 517C229 595 280 615 342 615L351 615Z"  horiz-adv-x="401" vert-adv-y="1000"  />

      
      <glyph glyph-name="uni67" unicode="&#x67;" d="M301 507C159 507 54 392 54 256C54 119 159 5 301 5C367 5 425 37 458 85L458 42C458-50 404-100 312-100C249-100 200-82 151-53L94-114C149-159 222-191 312-191C468-191 559-85 559 63L559 500L490 500L485 410C447 468 380 507 301 507ZM310 411C393 411 467 345 467 256C467 166 393 101 310 101C227 101 154 166 154 256C154 345 227 411 310 411Z"  horiz-adv-x="648" vert-adv-y="1000"  />

      
      <glyph glyph-name="uni011F" unicode="&#x011F;" d="M390 694C390 654 355 624 310 624C265 624 230 654 230 694L160 694C160 613 227 553 310 553C393 553 460 613 460 694ZM301 507C159 507 54 392 54 256C54 119 159 5 301 5C367 5 425 37 458 85L458 42C458-50 404-100 312-100C249-100 200-82 151-53L94-114C149-159 222-191 312-191C468-191 559-85 559 63L559 500L490 500L485 410C447 468 380 507 301 507ZM310 411C393 411 467 345 467 256C467 166 393 101 310 101C227 101 154 166 154 256C154 345 227 411 310 411Z"  horiz-adv-x="648" vert-adv-y="1000"  />

      
      <glyph glyph-name="uni0123" unicode="&#x0123;" d="M301 507C159 507 54 392 54 256C54 119 159 5 301 5C367 5 425 37 458 85L458 42C458-50 404-100 312-100C249-100 200-82 151-53L94-114C149-159 222-191 312-191C468-191 559-85 559 63L559 500L490 500L485 410C447 468 380 507 301 507ZM310 411C393 411 467 345 467 256C467 166 393 101 310 101C227 101 154 166 154 256C154 345 227 411 310 411ZM273-381L387-250L275-250L196-381Z"  horiz-adv-x="648" vert-adv-y="1000"  />

      
      <glyph glyph-name="uni0121" unicode="&#x0121;" d="M310 660C276 660 250 637 250 607C250 577 276 553 310 553C343 553 369 577 369 607C369 637 343 660 310 660ZM301 507C159 507 54 392 54 256C54 119 159 5 301 5C367 5 425 37 458 85L458 42C458-50 404-100 312-100C249-100 200-82 151-53L94-114C149-159 222-191 312-191C468-191 559-85 559 63L559 500L490 500L485 410C447 468 380 507 301 507ZM310 411C393 411 467 345 467 256C467 166 393 101 310 101C227 101 154 166 154 256C154 345 227 411 310 411Z"  horiz-adv-x="648" vert-adv-y="1000"  />

      
      <glyph glyph-name="uni68" unicode="&#x68;" d="M354 507C294 507 229 483 194 424L194 700L94 700L94 0L194 0L194 242C194 353 251 411 339 411C420 411 472 367 472 261L472 0L572 0L572 266C572 414 494 507 354 507Z"  horiz-adv-x="656" vert-adv-y="1000"  />

      
      <glyph glyph-name="uni0127" unicode="&#x0127;" d="M429 507C369 507 304 483 269 424L269 549L342 549L342 619L269 619L269 700L169 700L169 619L94 619L94 549L169 549L169 0L269 0L269 242C269 353 326 411 414 411C495 411 547 367 547 261L547 0L647 0L647 266C647 414 569 507 429 507Z"  horiz-adv-x="731" vert-adv-y="1000"  />

      
      <glyph glyph-name="uni69" unicode="&#x69;" d="M154 553C187 553 213 577 213 607C213 637 187 660 154 660C120 660 94 637 94 607C94 577 120 553 154 553ZM103 0L203 0L203 500L103 500Z"  horiz-adv-x="302" vert-adv-y="1000"  />

      
      <glyph glyph-name="uni0131" unicode="&#x0131;" d="M94 0L194 0L194 500L94 500Z"  horiz-adv-x="283" vert-adv-y="1000"  />

      
      <glyph glyph-name="unied" unicode="&#xed;" d="M171 553L285 685L173 685L94 553ZM112 0L212 0L212 500L112 500Z"  horiz-adv-x="374" vert-adv-y="1000"  />

      
      <glyph glyph-name="uni01D0" unicode="&#x01D0;" d="M288 553L385 687L306 687L240 629L173 687L94 687L191 553ZM290 0L290 500L190 500L190 0Z"  horiz-adv-x="474" vert-adv-y="1000"  />

      
      <glyph glyph-name="uniee" unicode="&#xee;" d="M288 687L191 687L94 554L173 554L240 612L306 553L385 553ZM290 0L290 500L190 500L190 0Z"  horiz-adv-x="474" vert-adv-y="1000"  />

      
      <glyph glyph-name="unief" unicode="&#xef;" d="M153 553C187 553 213 577 213 607C213 637 187 660 153 660C120 660 94 637 94 607C94 577 120 553 153 553ZM365 553C398 553 424 577 424 607C424 637 398 660 365 660C331 660 305 637 305 607C305 577 331 553 365 553ZM211 0L311 0L311 500L211 500Z"  horiz-adv-x="514" vert-adv-y="1000"  />

      
      <glyph glyph-name="uniec" unicode="&#xec;" d="M207 685L94 685L208 553L285 553ZM178 0L278 0L278 500L178 500Z"  horiz-adv-x="374" vert-adv-y="1000"  />

      
      <glyph glyph-name="uni0133" unicode="&#x0133;" d="M154 660C120 660 94 637 94 607C94 577 120 553 154 553C187 553 213 577 213 607C213 637 187 660 154 660ZM351 660C317 660 291 637 291 607C291 577 317 553 351 553C384 553 410 577 410 607C410 637 384 660 351 660ZM203 0L203 500L103 500L103 0ZM400-184L400 500L300 500L300-184Z"  horiz-adv-x="499" vert-adv-y="1000"  />

      
      <glyph glyph-name="uni012B" unicode="&#x012B;" d="M352 553L352 628L94 628L94 553ZM173 0L273 0L273 500L173 500Z"  horiz-adv-x="441" vert-adv-y="1000"  />

      
      <glyph glyph-name="uni012F" unicode="&#x012F;" d="M187 553C220 553 246 577 246 607C246 637 220 660 187 660C153 660 127 637 127 607C127 577 153 553 187 553ZM136 500L136 0L204 0C150-22 126-49 126-86C126-141 176-164 228-164L235-164L235-101L223-101C193-101 171-87 171-61C171-38 186-19 236 0L236 500Z"  horiz-adv-x="335" vert-adv-y="1000"  />

      
      <glyph glyph-name="uni6a" unicode="&#x6a;" d="M154 660C120 660 94 637 94 607C94 577 120 553 154 553C187 553 213 577 213 607C213 637 187 660 154 660ZM203-184L203 500L103 500L103-184Z"  horiz-adv-x="302" vert-adv-y="1000"  />

      
      <glyph glyph-name="uni6b" unicode="&#x6b;" d="M449 0L560 0L448 171C419 216 392 249 360 259C387 270 413 303 441 344L543 500L432 500L357 386C319 326 302 306 242 306L194 306L194 700L94 700L94 0L194 0L194 209L250 209C309 209 327 189 365 130Z"  horiz-adv-x="595" vert-adv-y="1000"  />

      
      <glyph glyph-name="uni0137" unicode="&#x0137;" d="M449 0L560 0L448 171C419 216 392 249 360 259C387 270 413 303 441 344L543 500L432 500L357 386C319 326 302 306 242 306L194 306L194 700L94 700L94 0L194 0L194 209L250 209C309 209 327 189 365 130ZM272-200L386-69L274-69L195-200Z"  horiz-adv-x="595" vert-adv-y="1000"  />

      
      <glyph glyph-name="uni6c" unicode="&#x6c;" d="M94 0L194 0L194 700L94 700Z"  horiz-adv-x="281" vert-adv-y="1000"  />

      
      <glyph glyph-name="uni013A" unicode="&#x013A;" d="M171 750L285 882L173 882L94 750ZM112 700L112 0L212 0L212 700Z"  horiz-adv-x="371" vert-adv-y="1000"  />

      
      <glyph glyph-name="uni013E" unicode="&#x013E;" d="M94 700L94 0L194 0L194 700ZM301 569L415 700L303 700L224 569Z"  horiz-adv-x="501" vert-adv-y="1000"  />

      
      <glyph glyph-name="uni013C" unicode="&#x013C;" d="M155 700L155 0L255 0L255 700ZM171-193L285-62L173-62L94-193Z"  horiz-adv-x="371" vert-adv-y="1000"  />

      
      <glyph glyph-name="uni0140" unicode="&#x0140;" d="M94 700L94 0L194 0L194 700ZM290 362C254 362 228 333 228 301C228 268 254 240 290 240C326 240 351 268 351 301C351 333 326 362 290 362Z"  horiz-adv-x="438" vert-adv-y="1000"  />

      
      <glyph glyph-name="uni0142" unicode="&#x0142;" d="M321 437L321 500L258 472L258 700L158 700L158 428L94 400L94 337L158 365L158 0L258 0L258 409Z"  horiz-adv-x="408" vert-adv-y="1000"  />

      
      <glyph glyph-name="uni6d" unicode="&#x6d;" d="M728 507C647 507 570 470 536 391C507 466 440 507 349 507C274 507 201 475 164 404L157 500L89 500L89 0L189 0L189 242C189 353 246 411 334 411C415 411 467 367 467 261L467 0L567 0L567 242C567 353 624 411 713 411C793 411 846 367 846 261L846 0L946 0L946 266C946 414 868 507 728 507Z"  horiz-adv-x="1030" vert-adv-y="1000"  />

      
      <glyph glyph-name="uni6e" unicode="&#x6e;" d="M349 507C274 507 201 475 164 404L157 500L89 500L89 0L189 0L189 242C189 353 246 411 334 411C415 411 467 367 467 261L467 0L567 0L567 266C567 414 489 507 349 507Z"  horiz-adv-x="651" vert-adv-y="1000"  />

      
      <glyph glyph-name="uni0144" unicode="&#x0144;" d="M342 553L456 685L344 685L265 553ZM349 507C274 507 201 475 164 404L157 500L89 500L89 0L189 0L189 242C189 353 246 411 334 411C415 411 467 367 467 261L467 0L567 0L567 266C567 414 489 507 349 507Z"  horiz-adv-x="651" vert-adv-y="1000"  />

      
      <glyph glyph-name="uni0148" unicode="&#x0148;" d="M387 553L484 687L405 687L339 629L272 687L193 687L290 553ZM349 507C274 507 201 475 164 404L157 500L89 500L89 0L189 0L189 242C189 353 246 411 334 411C415 411 467 367 467 261L467 0L567 0L567 266C567 414 489 507 349 507Z"  horiz-adv-x="651" vert-adv-y="1000"  />

      
      <glyph glyph-name="uni0146" unicode="&#x0146;" d="M349 507C274 507 201 475 164 404L157 500L89 500L89 0L189 0L189 242C189 353 246 411 334 411C415 411 467 367 467 261L467 0L567 0L567 266C567 414 489 507 349 507ZM311-200L425-69L313-69L234-200Z"  horiz-adv-x="651" vert-adv-y="1000"  />

      
      <glyph glyph-name="uni014B" unicode="&#x014B;" d="M349 507C274 507 201 475 164 404L157 500L89 500L89 0L189 0L189 242C189 353 246 411 334 411C415 411 467 367 467 261L468 26C467-80 423-99 353-99L344-99L344-190L358-191C485-198 567-121 567 30L567 266C567 414 489 507 349 507Z"  horiz-adv-x="651" vert-adv-y="1000"  />

      
      <glyph glyph-name="unif1" unicode="&#xf1;" d="M481 659L433 659L426 638C418 618 409 607 392 607C379 606 367 612 356 620L316 653C302 664 283 672 261 670C233 668 212 650 199 614L176 553L224 553L231 574C238 594 246 604 262 605C275 607 288 601 300 593L341 560C354 549 373 541 395 543C423 545 445 563 458 599ZM349 507C274 507 201 475 164 404L157 500L89 500L89 0L189 0L189 242C189 353 246 411 334 411C415 411 467 367 467 261L467 0L567 0L567 266C567 414 489 507 349 507Z"  horiz-adv-x="651" vert-adv-y="1000"  />

      
      <glyph glyph-name="uni6f" unicode="&#x6f;" d="M315 507C173 507 59 392 59 250C59 108 173-6 315-6C457-6 572 108 572 250C572 392 457 507 315 507ZM315 411C398 411 472 345 472 250C472 155 398 90 315 90C232 90 159 155 159 250C159 345 232 411 315 411Z"  horiz-adv-x="631" vert-adv-y="1000"  />

      
      <glyph glyph-name="unif3" unicode="&#xf3;" d="M321 553L435 685L323 685L244 553ZM315 507C173 507 59 392 59 250C59 108 173-6 315-6C457-6 572 108 572 250C572 392 457 507 315 507ZM315 411C398 411 472 345 472 250C472 155 398 90 315 90C232 90 159 155 159 250C159 345 232 411 315 411Z"  horiz-adv-x="631" vert-adv-y="1000"  />

      
      <glyph glyph-name="uni01D2" unicode="&#x01D2;" d="M363 553L460 687L381 687L315 629L248 687L169 687L266 554ZM315 507C173 507 59 392 59 250C59 108 173-6 315-6C457-6 572 108 572 250C572 392 457 507 315 507ZM315 411C398 411 472 345 472 250C472 155 398 90 315 90C232 90 159 155 159 250C159 345 232 411 315 411Z"  horiz-adv-x="631" vert-adv-y="1000"  />

      
      <glyph glyph-name="unif4" unicode="&#xf4;" d="M381 553L460 553L363 687L266 687L169 553L248 553L315 612ZM315 507C173 507 59 392 59 250C59 108 173-6 315-6C457-6 572 108 572 250C572 392 457 507 315 507ZM315 411C398 411 472 345 472 250C472 155 398 90 315 90C232 90 159 155 159 250C159 345 232 411 315 411Z"  horiz-adv-x="631" vert-adv-y="1000"  />

      
      <glyph glyph-name="unif6" unicode="&#xf6;" d="M211 553C244 553 270 577 270 607C270 637 244 660 211 660C177 660 151 637 151 607C151 577 177 553 211 553ZM423 553C456 553 482 577 482 607C482 637 456 660 423 660C389 660 363 637 363 607C363 577 389 553 423 553ZM315 507C173 507 59 392 59 250C59 108 173-6 315-6C457-6 572 108 572 250C572 392 457 507 315 507ZM315 411C398 411 472 345 472 250C472 155 398 90 315 90C232 90 159 155 159 250C159 345 232 411 315 411Z"  horiz-adv-x="631" vert-adv-y="1000"  />

      
      <glyph glyph-name="unif2" unicode="&#xf2;" d="M297 685L185 685L299 553L376 553ZM315 507C173 507 59 392 59 250C59 108 173-6 315-6C457-6 572 108 572 250C572 392 457 507 315 507ZM315 411C398 411 472 345 472 250C472 155 398 90 315 90C232 90 159 155 159 250C159 345 232 411 315 411Z"  horiz-adv-x="631" vert-adv-y="1000"  />

      
      <glyph glyph-name="uni0151" unicode="&#x0151;" d="M250 553L364 685L252 685L173 553ZM406 553L520 685L408 685L329 553ZM315 507C173 507 59 392 59 250C59 108 173-6 315-6C457-6 572 108 572 250C572 392 457 507 315 507ZM315 411C398 411 472 345 472 250C472 155 398 90 315 90C232 90 159 155 159 250C159 345 232 411 315 411Z"  horiz-adv-x="635" vert-adv-y="1000"  />

      
      <glyph glyph-name="uni014D" unicode="&#x014D;" d="M443 553L443 628L185 628L185 553ZM315 507C173 507 59 392 59 250C59 108 173-6 315-6C457-6 572 108 572 250C572 392 457 507 315 507ZM315 411C398 411 472 345 472 250C472 155 398 90 315 90C232 90 159 155 159 250C159 345 232 411 315 411Z"  horiz-adv-x="631" vert-adv-y="1000"  />

      
      <glyph glyph-name="unif8" unicode="&#xf8;" d="M572 500L504 500L466 458C424 489 372 507 315 507C173 507 59 392 59 250C59 183 85 122 127 76L59 0L126 0L164 43C206 12 258-6 315-6C457-6 572 108 572 250C572 317 546 378 504 424ZM159 250C159 345 232 411 315 411C346 411 376 402 402 385L192 150C172 176 159 211 159 250ZM472 250C472 155 398 90 315 90C284 90 254 99 229 116L439 350C459 324 472 289 472 250Z"  horiz-adv-x="631" vert-adv-y="1000"  />

      
      <glyph glyph-name="unif5" unicode="&#xf5;" d="M467 659L419 659L412 638C404 618 395 607 378 607C365 606 353 612 342 620L302 653C288 664 269 672 247 670C219 668 198 650 185 614L162 553L210 553L217 574C224 594 232 604 248 605C261 607 274 601 286 593L327 560C340 549 359 541 381 543C409 545 431 563 444 599ZM315 507C173 507 59 392 59 250C59 108 173-6 315-6C457-6 572 108 572 250C572 392 457 507 315 507ZM315 411C398 411 472 345 472 250C472 155 398 90 315 90C232 90 159 155 159 250C159 345 232 411 315 411Z"  horiz-adv-x="631" vert-adv-y="1000"  />

      
      <glyph glyph-name="uni0153" unicode="&#x0153;" d="M725 507C630 507 555 459 519 389C480 459 403 507 315 507C173 507 59 392 59 250C59 108 173-6 315-6C403-6 480 42 520 111C557 38 633-6 730-6C817-6 891 29 945 71L892 129C845 101 789 85 730 85C642 85 574 136 574 224L955 224C967 262 966 324 947 366C910 453 833 507 725 507ZM725 416C787 416 832 383 853 337C861 322 865 303 865 288L578 288C582 356 640 416 725 416ZM315 411C398 411 472 345 472 250C472 155 398 90 315 90C232 90 159 155 159 250C159 345 232 411 315 411Z"  horiz-adv-x="1017" vert-adv-y="1000"  />

      
      <glyph glyph-name="uni70" unicode="&#x70;" d="M332 506C253 506 185 467 148 408L142 500L74 500L74-184L174-184L174 76C206 27 265-7 332-7C474-7 579 108 579 250C579 392 474 506 332 506ZM323 410C406 410 479 345 479 250C479 155 406 90 323 90C240 90 166 155 166 250C166 345 240 410 323 410Z"  horiz-adv-x="638" vert-adv-y="1000"  />

      
      <glyph glyph-name="unife" unicode="&#xfe;" d="M191 700L91 700L91-184L191-184L191 76C223 27 282-7 349-7C491-7 596 108 596 250C596 392 491 506 349 506C282 506 223 473 191 424ZM341 410C424 410 497 345 497 250C497 155 424 90 341 90C258 90 184 155 184 250C184 345 258 410 341 410Z"  horiz-adv-x="655" vert-adv-y="1000"  />

      
      <glyph glyph-name="uni71" unicode="&#x71;" d="M564-184L564 500L496 500L490 408C453 467 385 506 306 506C164 506 59 392 59 250C59 108 164-7 306-7C373-7 432 27 464 76L464-184ZM315 90C232 90 159 155 159 250C159 345 232 410 315 410C398 410 472 345 472 250C472 155 398 90 315 90Z"  horiz-adv-x="653" vert-adv-y="1000"  />

      
      <glyph glyph-name="uni72" unicode="&#x72;" d="M398 411L398 507L381 507C280 507 206 460 168 378L157 500L89 500L89 0L189 0L189 220C189 330 240 411 358 411Z"  horiz-adv-x="432" vert-adv-y="1000"  />

      
      <glyph glyph-name="uni0155" unicode="&#x0155;" d="M244 553L358 685L246 685L167 553ZM398 411L398 507L381 507C280 507 206 460 168 378L157 500L89 500L89 0L189 0L189 220C189 330 240 411 358 411Z"  horiz-adv-x="432" vert-adv-y="1000"  />

      
      <glyph glyph-name="uni0159" unicode="&#x0159;" d="M288 553L385 687L306 687L240 629L173 687L94 687L191 553ZM398 411L398 507L381 507C280 507 206 460 168 378L157 500L89 500L89 0L189 0L189 220C189 330 240 411 358 411Z"  horiz-adv-x="432" vert-adv-y="1000"  />

      
      <glyph glyph-name="uni0157" unicode="&#x0157;" d="M398 411L398 507L381 507C280 507 206 460 168 378L157 500L89 500L89 0L189 0L189 220C189 330 240 411 358 411ZM207-200L321-69L209-69L130-200Z"  horiz-adv-x="432" vert-adv-y="1000"  />

      
      <glyph glyph-name="uni73" unicode="&#x73;" d="M269 507C162 506 73 452 73 356C73 276 131 229 251 218L294 213C350 207 391 197 391 143C391 96 346 75 290 75L286 75C219 75 145 105 116 146L59 92C98 33 191-6 287-6L293-6C411-6 491 57 491 146C491 256 407 290 314 298L268 303C193 310 173 330 173 362C173 403 215 426 272 427L280 427C326 427 391 402 424 361L481 414C438 471 357 507 279 507Z"  horiz-adv-x="550" vert-adv-y="1000"  />

      
      <glyph glyph-name="uni015B" unicode="&#x015B;" d="M292 553L406 685L294 685L215 553ZM269 507C162 506 73 452 73 356C73 276 131 229 251 218L294 213C350 207 391 197 391 143C391 96 346 75 290 75L286 75C219 75 145 105 116 146L59 92C98 33 191-6 287-6L293-6C411-6 491 57 491 146C491 256 407 290 314 298L268 303C193 310 173 330 173 362C173 403 215 426 272 427L280 427C326 427 391 402 424 361L481 414C438 471 357 507 279 507Z"  horiz-adv-x="550" vert-adv-y="1000"  />

      
      <glyph glyph-name="uni0161" unicode="&#x0161;" d="M323 553L420 687L341 687L275 629L208 687L129 687L226 553ZM269 507C162 506 73 452 73 356C73 276 131 229 251 218L294 213C350 207 391 197 391 143C391 96 346 75 290 75L286 75C219 75 145 105 116 146L59 92C98 33 191-6 287-6L293-6C411-6 491 57 491 146C491 256 407 290 314 298L268 303C193 310 173 330 173 362C173 403 215 426 272 427L280 427C326 427 391 402 424 361L481 414C438 471 357 507 279 507Z"  horiz-adv-x="550" vert-adv-y="1000"  />

      
      <glyph glyph-name="uni015F" unicode="&#x015F;" d="M491 146C491 256 407 290 314 298L268 303C193 310 173 330 173 362C173 403 215 426 272 427L280 427C326 427 391 402 424 361L481 414C438 471 357 507 279 507L269 507C162 506 73 452 73 356C73 276 131 229 251 218L294 213C350 207 391 197 391 143C391 96 346 75 290 75L286 75C219 75 145 105 116 146L59 92C94 38 174 1 260-5L238-75C281-56 302-70 302-95C302-124 266-135 230-113L230-143C305-186 366-154 366-98C366-42 320-27 284-38L293-6C411-6 491 57 491 146Z"  horiz-adv-x="550" vert-adv-y="1000"  />

      
      <glyph glyph-name="uni0219" unicode="&#x0219;" d="M269 507C162 506 73 452 73 356C73 276 131 229 251 218L294 213C350 207 391 197 391 143C391 96 346 75 290 75L286 75C219 75 145 105 116 146L59 92C98 33 191-6 287-6L293-6C411-6 491 57 491 146C491 256 407 290 314 298L268 303C193 310 173 330 173 362C173 403 215 426 272 427L280 427C326 427 391 402 424 361L481 414C438 471 357 507 279 507ZM240-200L354-69L242-69L163-200Z"  horiz-adv-x="550" vert-adv-y="1000"  />

      
      <glyph glyph-name="unidf" unicode="&#xdf;" d="M320 707C136 707 89 594 89 516L89 0L192 0L192 501C192 560 228 606 316 606L351 606C440 606 477 566 477 507C477 461 454 412 356 412L293 412L293 311L373 311C463 311 500 265 500 205C500 128 439 95 347 95L249 95L249-7L346-7C526-6 603 80 603 194C603 278 556 343 477 361C543 384 580 445 580 521C580 599 532 707 351 707Z"  horiz-adv-x="657" vert-adv-y="1000"  />

      
      <glyph glyph-name="uni74" unicode="&#x74;" d="M228 404L298 404L298 500L228 500L228 668L128 668L128 500L59 500L59 404L128 404L128 0L228 0Z"  horiz-adv-x="347" vert-adv-y="1000"  />

      
      <glyph glyph-name="uni0167" unicode="&#x0167;" d="M228 404L298 404L298 500L228 500L228 668L128 668L128 500L59 500L59 404L128 404L128 322L59 322L59 226L128 226L128 0L228 0L228 226L298 226L298 322L228 322Z"  horiz-adv-x="347" vert-adv-y="1000"  />

      
      <glyph glyph-name="uni0165" unicode="&#x0165;" d="M347 569L461 700L349 700L270 569ZM228 404L298 404L298 500L228 500L228 668L128 668L128 500L59 500L59 404L128 404L128 0L228 0Z"  horiz-adv-x="510" vert-adv-y="1000"  />

      
      <glyph glyph-name="uni0163" unicode="&#x0163;" d="M184 0L228 0L228 404L298 404L298 500L228 500L228 668L128 668L128 500L59 500L59 404L128 404L128 0L151 0L127-75C170-56 191-70 191-95C191-124 155-135 119-113L119-143C194-186 255-154 255-98C255-42 209-27 173-38Z"  horiz-adv-x="347" vert-adv-y="1000"  />

      
      <glyph glyph-name="uni021B" unicode="&#x021B;" d="M229 404L299 404L299 500L229 500L229 668L129 668L129 500L60 500L60 404L129 404L129 0L229 0ZM145-200L259-69L147-69L68-200Z"  horiz-adv-x="347" vert-adv-y="1000"  />

      
      <glyph glyph-name="uni75" unicode="&#x75;" d="M562 0L562 500L463 500L463 258C463 147 405 89 317 89C236 89 184 133 184 239L184 500L84 500L84 234C84 86 162-7 302-7C377-7 451 25 487 96L494 0Z"  horiz-adv-x="646" vert-adv-y="1000"  />

      
      <glyph glyph-name="unifa" unicode="&#xfa;" d="M428 685L316 685L237 553L314 553ZM562 0L562 500L463 500L463 258C463 147 405 89 317 89C236 89 184 133 184 239L184 500L84 500L84 234C84 86 162-7 302-7C377-7 451 25 487 96L494 0Z"  horiz-adv-x="646" vert-adv-y="1000"  />

      
      <glyph glyph-name="uni01D4" unicode="&#x01D4;" d="M366 553L463 687L384 687L318 629L251 687L172 687L269 553ZM562 0L562 500L463 500L463 258C463 147 405 89 317 89C236 89 184 133 184 239L184 500L84 500L84 234C84 86 162-7 302-7C377-7 451 25 487 96L494 0Z"  horiz-adv-x="646" vert-adv-y="1000"  />

      
      <glyph glyph-name="unifb" unicode="&#xfb;" d="M384 553L463 553L366 687L269 687L172 554L251 554L318 612ZM562 0L562 500L463 500L463 258C463 147 405 89 317 89C236 89 184 133 184 239L184 500L84 500L84 234C84 86 162-7 302-7C377-7 451 25 487 96L494 0Z"  horiz-adv-x="646" vert-adv-y="1000"  />

      
      <glyph glyph-name="unifc" unicode="&#xfc;" d="M216 660C182 660 156 637 156 607C156 577 182 553 216 553C249 553 275 577 275 607C275 637 249 660 216 660ZM427 660C393 660 367 637 367 607C367 577 393 553 427 553C460 553 486 577 486 607C486 637 460 660 427 660ZM562 0L562 500L463 500L463 258C463 147 405 89 317 89C236 89 184 133 184 239L184 500L84 500L84 234C84 86 162-7 302-7C377-7 451 25 487 96L494 0Z"  horiz-adv-x="646" vert-adv-y="1000"  />

      
      <glyph glyph-name="uni01D8" unicode="&#x01D8;" d="M342 689L456 821L344 821L265 689ZM216 660C182 660 156 637 156 607C156 577 182 553 216 553C249 553 275 577 275 607C275 637 249 660 216 660ZM427 660C393 660 367 637 367 607C367 577 393 553 427 553C460 553 486 577 486 607C486 637 460 660 427 660ZM562 0L562 500L463 500L463 258C463 147 405 89 317 89C236 89 184 133 184 239L184 500L84 500L84 234C84 86 162-7 302-7C377-7 451 25 487 96L494 0Z"  horiz-adv-x="646" vert-adv-y="1000"  />

      
      <glyph glyph-name="uni01DA" unicode="&#x01DA;" d="M366 689L463 823L384 823L318 765L251 822L172 822L269 689ZM216 660C182 660 156 637 156 607C156 577 182 553 216 553C249 553 275 577 275 607C275 637 249 660 216 660ZM427 660C393 660 367 637 367 607C367 577 393 553 427 553C460 553 486 577 486 607C486 637 460 660 427 660ZM562 0L562 500L463 500L463 258C463 147 405 89 317 89C236 89 184 133 184 239L184 500L84 500L84 234C84 86 162-7 302-7C377-7 451 25 487 96L494 0Z"  horiz-adv-x="646" vert-adv-y="1000"  />

      
      <glyph glyph-name="uni01DC" unicode="&#x01DC;" d="M381 689L302 821L190 821L304 689ZM216 660C182 660 156 637 156 607C156 577 182 553 216 553C249 553 275 577 275 607C275 637 249 660 216 660ZM427 660C393 660 367 637 367 607C367 577 393 553 427 553C460 553 486 577 486 607C486 637 460 660 427 660ZM562 0L562 500L463 500L463 258C463 147 405 89 317 89C236 89 184 133 184 239L184 500L84 500L84 234C84 86 162-7 302-7C377-7 451 25 487 96L494 0Z"  horiz-adv-x="646" vert-adv-y="1000"  />

      
      <glyph glyph-name="uni01D6" unicode="&#x01D6;" d="M452 689L452 764L194 764L194 689ZM216 660C182 660 156 637 156 607C156 577 182 553 216 553C249 553 275 577 275 607C275 637 249 660 216 660ZM427 660C393 660 367 637 367 607C367 577 393 553 427 553C460 553 486 577 486 607C486 637 460 660 427 660ZM562 0L562 500L463 500L463 258C463 147 405 89 317 89C236 89 184 133 184 239L184 500L84 500L84 234C84 86 162-7 302-7C377-7 451 25 487 96L494 0Z"  horiz-adv-x="646" vert-adv-y="1000"  />

      
      <glyph glyph-name="unif9" unicode="&#xf9;" d="M375 553L296 685L184 685L298 553ZM562 0L562 500L463 500L463 258C463 147 405 89 317 89C236 89 184 133 184 239L184 500L84 500L84 234C84 86 162-7 302-7C377-7 451 25 487 96L494 0Z"  horiz-adv-x="646" vert-adv-y="1000"  />

      
      <glyph glyph-name="uni0171" unicode="&#x0171;" d="M239 553L353 685L241 685L162 553ZM395 553L509 685L397 685L318 553ZM562 0L562 500L463 500L463 258C463 147 405 89 317 89C236 89 184 133 184 239L184 500L84 500L84 234C84 86 162-7 302-7C377-7 451 25 487 96L494 0Z"  horiz-adv-x="647" vert-adv-y="1000"  />

      
      <glyph glyph-name="uni016B" unicode="&#x016B;" d="M447 553L447 628L189 628L189 553ZM562 0L562 500L463 500L463 258C463 147 405 89 317 89C236 89 184 133 184 239L184 500L84 500L84 234C84 86 162-7 302-7C377-7 451 25 487 96L494 0Z"  horiz-adv-x="646" vert-adv-y="1000"  />

      
      <glyph glyph-name="uni0173" unicode="&#x0173;" d="M562 500L463 500L463 258C463 147 405 89 317 89C236 89 184 133 184 239L184 500L84 500L84 234C84 86 162-7 302-7C377-7 451 25 487 96L494 0L530 0C476-22 452-49 452-86C452-141 501-164 554-164L561-164L561-101L549-101C519-101 497-87 497-61C497-38 512-19 562 0Z"  horiz-adv-x="646" vert-adv-y="1000"  />

      
      <glyph glyph-name="uni016F" unicode="&#x016F;" d="M317 731C268 731 229 691 229 642C229 593 268 553 317 553C366 553 406 593 406 642C406 691 366 731 317 731ZM318 680C339 680 354 662 354 642C354 622 339 604 318 604C296 604 281 622 281 642C281 662 296 680 318 680ZM562 0L562 500L463 500L463 258C463 147 405 89 317 89C236 89 184 133 184 239L184 500L84 500L84 234C84 86 162-7 302-7C377-7 451 25 487 96L494 0Z"  horiz-adv-x="646" vert-adv-y="1000"  />

      
      <glyph glyph-name="uni76" unicode="&#x76;" d="M327 0L558 500L453 500L296 149L140 500L34 500L265 0Z"  horiz-adv-x="593" vert-adv-y="1000"  />

      
      <glyph glyph-name="uni77" unicode="&#x77;" d="M691 0L915 500L810 500L660 150L506 500L444 500L289 150L140 500L34 500L258 0L321 0L475 338L628 0Z"  horiz-adv-x="950" vert-adv-y="1000"  />

      
      <glyph glyph-name="uni1E83" unicode="&#x1E83;" d="M488 553L602 685L490 685L411 553ZM691 0L915 500L810 500L660 150L506 500L444 500L289 150L140 500L34 500L258 0L321 0L475 338L628 0Z"  horiz-adv-x="950" vert-adv-y="1000"  />

      
      <glyph glyph-name="uni0175" unicode="&#x0175;" d="M541 553L620 553L523 687L426 687L329 554L408 554L475 612ZM691 0L915 500L810 500L660 150L506 500L444 500L289 150L140 500L34 500L258 0L321 0L475 338L628 0Z"  horiz-adv-x="950" vert-adv-y="1000"  />

      
      <glyph glyph-name="uni1E85" unicode="&#x1E85;" d="M371 553C404 553 430 577 430 607C430 637 404 660 371 660C337 660 311 637 311 607C311 577 337 553 371 553ZM582 553C615 553 641 577 641 607C641 637 615 660 582 660C548 660 522 637 522 607C522 577 548 553 582 553ZM691 0L915 500L810 500L660 150L506 500L444 500L289 150L140 500L34 500L258 0L321 0L475 338L628 0Z"  horiz-adv-x="950" vert-adv-y="1000"  />

      
      <glyph glyph-name="uni1E81" unicode="&#x1E81;" d="M459 685L347 685L461 553L538 553ZM691 0L915 500L810 500L660 150L506 500L444 500L289 150L140 500L34 500L258 0L321 0L475 338L628 0Z"  horiz-adv-x="950" vert-adv-y="1000"  />

      
      <glyph glyph-name="uni78" unicode="&#x78;" d="M292 176L437 0L553 0L351 255L542 500L426 500L295 338L161 500L45 500L236 259L34 0L150 0Z"  horiz-adv-x="588" vert-adv-y="1000"  />

      
      <glyph glyph-name="uni79" unicode="&#x79;" d="M567 500L468 500L468 270C468 158 410 101 322 101C241 101 189 145 189 251L189 500L89 500L89 245C89 98 167 5 307 5C366 5 432 28 467 88L467 42C467-50 412-100 321-100C258-100 208-82 160-53L103-114C157-159 231-191 321-191C477-191 567-85 567 63Z"  horiz-adv-x="651" vert-adv-y="1000"  />

      
      <glyph glyph-name="unifd" unicode="&#xfd;" d="M320 553L434 685L322 685L243 553ZM567 500L468 500L468 270C468 158 410 101 322 101C241 101 189 145 189 251L189 500L89 500L89 245C89 98 167 5 307 5C366 5 432 28 467 88L467 42C467-50 412-100 321-100C258-100 208-82 160-53L103-114C157-159 231-191 321-191C477-191 567-85 567 63Z"  horiz-adv-x="651" vert-adv-y="1000"  />

      
      <glyph glyph-name="uni0177" unicode="&#x0177;" d="M371 687L274 687L177 554L256 554L323 612L389 553L468 553ZM189 500L89 500L89 245C89 98 167 5 307 5C366 5 432 28 467 88L467 42C467-50 412-100 321-100C258-100 208-82 160-53L103-114C157-159 231-191 321-191C477-191 567-85 567 63L567 500L468 500L468 270C468 158 410 101 322 101C241 101 189 145 189 251Z"  horiz-adv-x="651" vert-adv-y="1000"  />

      
      <glyph glyph-name="uniff" unicode="&#xff;" d="M218 660C184 660 158 637 158 607C158 577 184 553 218 553C251 553 277 577 277 607C277 637 251 660 218 660ZM430 660C396 660 370 637 370 607C370 577 396 553 430 553C463 553 489 577 489 607C489 637 463 660 430 660ZM189 500L89 500L89 245C89 98 167 5 307 5C366 5 432 28 467 88L467 42C467-50 412-100 321-100C258-100 208-82 160-53L103-114C157-159 231-191 321-191C477-191 567-85 567 63L567 500L468 500L468 270C468 158 410 101 322 101C241 101 189 145 189 251Z"  horiz-adv-x="651" vert-adv-y="1000"  />

      
      <glyph glyph-name="uni1EF3" unicode="&#x1EF3;" d="M395 553L316 685L204 685L318 553ZM189 500L89 500L89 245C89 98 167 5 307 5C366 5 432 28 467 88L467 42C467-50 412-100 321-100C258-100 208-82 160-53L103-114C157-159 231-191 321-191C477-191 567-85 567 63L567 500L468 500L468 270C468 158 410 101 322 101C241 101 189 145 189 251Z"  horiz-adv-x="651" vert-adv-y="1000"  />

      
      <glyph glyph-name="uni7a" unicode="&#x7a;" d="M488 0L488 96L203 96L477 427L477 500L82 500L82 404L333 404L60 73L59 0Z"  horiz-adv-x="547" vert-adv-y="1000"  />

      
      <glyph glyph-name="uni017A" unicode="&#x017A;" d="M275 553L389 685L277 685L198 553ZM488 0L488 96L203 96L477 427L477 500L82 500L82 404L333 404L60 73L59 0Z"  horiz-adv-x="547" vert-adv-y="1000"  />

      
      <glyph glyph-name="uni017E" unicode="&#x017E;" d="M322 553L419 687L340 687L274 629L207 687L128 687L225 553ZM477 427L477 500L82 500L82 404L333 404L60 73L59 0L488 0L488 96L203 96Z"  horiz-adv-x="547" vert-adv-y="1000"  />

      
      <glyph glyph-name="uni017C" unicode="&#x017C;" d="M268 553C301 553 327 577 327 607C327 637 301 660 268 660C234 660 208 637 208 607C208 577 234 553 268 553ZM488 0L488 96L203 96L477 427L477 500L82 500L82 404L333 404L60 73L59 0Z"  horiz-adv-x="547" vert-adv-y="1000"  />

      
      <glyph glyph-name="uni0410" unicode="&#x0410;" d="M227 157L500 157L563 0L682 0L396 700L333 700L44 0L163 0ZM364 503L463 259L265 259Z"  horiz-adv-x="727" vert-adv-y="1000"  />

      
      <glyph glyph-name="uni0411" unicode="&#x0411;" d="M217 433L217 598L565 598L565 700L109 700L109 0L406 0C572 0 643 86 643 216C643 347 566 433 406 433ZM217 102L217 331L408 331C500 331 541 289 541 216C541 144 506 102 408 102Z"  horiz-adv-x="698" vert-adv-y="1000"  />

      
      <glyph glyph-name="uni0412" unicode="&#x0412;" d="M109 700L109 0L386 0C575 0 638 86 638 197C638 284 589 349 506 366C570 389 606 442 606 517C606 592 571 700 371 700ZM217 598L382 598C486 598 503 548 503 503C503 457 480 408 382 408L217 408ZM217 315L408 315C498 315 535 268 535 208C535 149 503 102 408 102L217 102Z"  horiz-adv-x="692" vert-adv-y="1000"  />

      
      <glyph glyph-name="uni0413" unicode="&#x0413;" d="M217 598L554 598L554 700L109 700L109 0L217 0Z"  horiz-adv-x="598" vert-adv-y="1000"  />

      
      <glyph glyph-name="uni0414" unicode="&#x0414;" d="M773-129L773 102L682 102L437 700L374 700L127 102L35 102L35-129L143-129L143 0L665 0L665-129ZM405 501L566 102L243 102Z"  horiz-adv-x="809" vert-adv-y="1000"  />

      
      <glyph glyph-name="uni0415" unicode="&#x0415;" d="M217 404L217 598L564 598L564 700L109 700L109 0L564 0L564 102L217 102L217 302L540 302L540 404Z"  horiz-adv-x="626" vert-adv-y="1000"  />

      
      <glyph glyph-name="uni0401" unicode="&#x0401;" d="M227 750C260 750 286 774 286 804C286 833 260 857 227 857C193 857 167 833 167 804C167 774 193 750 227 750ZM439 750C472 750 498 774 498 804C498 833 472 857 439 857C405 857 379 833 379 804C379 774 405 750 439 750ZM217 404L217 598L564 598L564 700L109 700L109 0L564 0L564 102L217 102L217 302L540 302L540 404Z"  horiz-adv-x="618" vert-adv-y="1000"  />

      
      <glyph glyph-name="uni0416" unicode="&#x0416;" d="M911 0L1033 0L867 258C825 324 802 348 772 358C796 371 819 394 859 453L1019 700L896 700L760 487C721 428 704 407 644 407L592 407L592 700L484 700L484 407L433 407C373 407 356 428 317 487L181 700L58 700L218 453C258 394 281 371 305 358C275 348 252 324 210 258L44 0L166 0L310 224C348 283 365 303 425 303L484 303L484 0L592 0L592 303L652 303C712 303 729 283 767 224Z"  horiz-adv-x="1078" vert-adv-y="1000"  />

      
      <glyph glyph-name="uni0417" unicode="&#x0417;" d="M244 412L244 311L352 311C442 311 479 265 479 205C479 129 419 95 329 95L323 95C241 95 160 134 114 195L44 130C104 49 203-7 320-7L326-7C505-6 582 80 582 194C582 278 535 343 456 361C522 384 559 445 559 521C559 599 511 706 330 707L323 707C224 707 127 662 62 591L132 526C182 576 262 606 327 606L333 606C420 605 457 565 457 507C457 461 433 412 335 412Z"  horiz-adv-x="637" vert-adv-y="1000"  />

      
      <glyph glyph-name="uni0418" unicode="&#x0418;" d="M640 0L640 700L577 700L207 206L207 700L99 700L99 0L162 0L532 494L532 0Z"  horiz-adv-x="739" vert-adv-y="1000"  />

      
      <glyph glyph-name="uni0419" unicode="&#x0419;" d="M370 750C453 750 520 809 520 890L450 890C450 851 415 820 370 820C325 820 290 851 290 890L220 890C220 809 287 750 370 750ZM640 0L640 700L577 700L207 206L207 700L99 700L99 0L162 0L532 494L532 0Z"  horiz-adv-x="739" vert-adv-y="1000"  />

      
      <glyph glyph-name="uni041A" unicode="&#x041A;" d="M565 0L687 0L521 258C479 324 456 348 426 358C451 371 473 394 514 453L673 700L550 700L414 487C375 428 358 407 298 407L217 407L217 700L109 700L109 0L217 0L217 303L306 303C366 303 383 283 421 223Z"  horiz-adv-x="732" vert-adv-y="1000"  />

      
      <glyph glyph-name="uni041B" unicode="&#x041B;" d="M363 501L563 0L682 0L396 700L333 700L44 0L163 0Z"  horiz-adv-x="727" vert-adv-y="1000"  />

      
      <glyph glyph-name="uni041C" unicode="&#x041C;" d="M786 0L786 700L724 700L443 345L162 700L99 700L99 0L207 0L207 498L443 202L678 498L678 0Z"  horiz-adv-x="895" vert-adv-y="1000"  />

      
      <glyph glyph-name="uni041D" unicode="&#x041D;" d="M637 0L637 700L529 700L529 404L207 404L207 700L99 700L99 0L207 0L207 302L529 302L529 0Z"  horiz-adv-x="736" vert-adv-y="1000"  />

      
      <glyph glyph-name="uni041E" unicode="&#x041E;" d="M419 707C222 707 63 547 63 350C63 152 222-7 419-7C616-7 776 152 776 350C776 547 616 707 419 707ZM419 605C558 605 668 498 668 350C668 201 558 95 419 95C280 95 171 201 171 350C171 498 280 605 419 605Z"  horiz-adv-x="840" vert-adv-y="1000"  />

      
      <glyph glyph-name="uni041F" unicode="&#x041F;" d="M631 0L631 700L99 700L99 0L207 0L207 598L523 598L523 0Z"  horiz-adv-x="730" vert-adv-y="1000"  />

      
      <glyph glyph-name="uni0420" unicode="&#x0420;" d="M109 700L109 0L217 0L217 174L335 174C522 174 643 279 643 437C643 594 522 700 335 700ZM217 275L217 598L342 598C447 598 541 548 541 437C541 322 447 275 342 275Z"  horiz-adv-x="707" vert-adv-y="1000"  />

      
      <glyph glyph-name="uni0421" unicode="&#x0421;" d="M419 707C222 707 63 547 63 350C63 153 222-7 419-7C523-7 617 38 683 109L613 174C563 123 495 95 419 95C280 95 171 201 171 350C171 498 280 605 419 605C495 605 563 576 613 526L683 591C617 662 523 707 419 707Z"  horiz-adv-x="738" vert-adv-y="1000"  />

      
      <glyph glyph-name="uni0422" unicode="&#x0422;" d="M356 598L561 598L561 700L44 700L44 598L248 598L248 0L356 0Z"  horiz-adv-x="606" vert-adv-y="1000"  />

      
      <glyph glyph-name="uni0423" unicode="&#x0423;" d="M281 0L689 700L566 700L367 363L167 700L44 700L305 252L158 0Z"  horiz-adv-x="734" vert-adv-y="1000"  />

      
      <glyph glyph-name="uni0424" unicode="&#x0424;" d="M837 675C754 675 682 632 644 571L644 700L536 700L536 570C498 632 426 675 343 675C176 675 63 547 63 386C63 225 176 98 343 98C426 98 498 140 536 201L536 0L644 0L644 201C681 140 753 98 837 98C1003 98 1116 225 1116 386C1116 547 1003 675 837 675ZM354 200C252 200 172 278 172 386C172 494 252 573 354 573C456 573 536 494 536 386C536 278 456 200 354 200ZM827 200C725 200 645 278 645 386C645 494 725 573 827 573C929 573 1009 494 1009 386C1009 278 929 200 827 200Z"  horiz-adv-x="1180" vert-adv-y="1000"  />

      
      <glyph glyph-name="uni0425" unicode="&#x0425;" d="M352 264L538 0L662 0L414 358L648 700L524 700L355 457L182 700L58 700L292 363L44 0L168 0Z"  horiz-adv-x="707" vert-adv-y="1000"  />

      
      <glyph glyph-name="uni0427" unicode="&#x0427;" d="M594 0L594 700L486 700L486 449C485 320 404 272 327 272C235 272 162 315 162 448L162 700L54 700L54 453C54 244 175 171 310 171C387 171 453 203 486 267L486 0Z"  horiz-adv-x="703" vert-adv-y="1000"  />

      
      <glyph glyph-name="uni0426" unicode="&#x0426;" d="M726-129L726 102L634 102L634 700L526 700L526 102L207 102L207 700L99 700L99 0L618 0L618-129Z"  horiz-adv-x="771" vert-adv-y="1000"  />

      
      <glyph glyph-name="uni0428" unicode="&#x0428;" d="M945 0L945 700L837 700L837 102L576 102L576 700L468 700L468 102L207 102L207 700L99 700L99 0Z"  horiz-adv-x="1050" vert-adv-y="1000"  />

      
      <glyph glyph-name="uni0429" unicode="&#x0429;" d="M1037-129L1037 102L945 102L945 700L837 700L837 102L576 102L576 700L468 700L468 102L207 102L207 700L99 700L99 0L929 0L929-129Z"  horiz-adv-x="1115" vert-adv-y="1000"  />

      
      <glyph glyph-name="uni042F" unicode="&#x042F;" d="M589 0L589 700L358 700C171 700 55 594 55 442C55 331 119 254 220 219C186 202 153 167 110 100L45 0L167 0L218 80C275 167 300 182 371 184L481 184L481 0ZM481 598L481 285L348 285C243 285 157 332 157 442C157 548 243 598 348 598Z"  horiz-adv-x="698" vert-adv-y="1000"  />

      
      <glyph glyph-name="uni042C" unicode="&#x042C;" d="M211 433L211 700L103 700L103 0L395 0C560 0 632 86 632 216C632 347 554 433 395 433ZM211 102L211 331L397 331C489 331 529 289 529 216C529 144 494 102 397 102Z"  horiz-adv-x="682" vert-adv-y="1000"  />

      
      <glyph glyph-name="uni042A" unicode="&#x042A;" d="M244 433L244 700L44 700L44 598L136 598L136 0L428 0C593 0 665 86 665 216C665 347 588 433 428 433ZM245 102L245 331L431 331C523 331 563 289 563 216C563 144 528 102 431 102Z"  horiz-adv-x="715" vert-adv-y="1000"  />

      
      <glyph glyph-name="uni042B" unicode="&#x042B;" d="M211 433L211 700L103 700L103 0L395 0C560 0 632 86 632 216C632 347 554 433 395 433ZM823 0L823 700L715 700L715 0ZM211 102L211 331L397 331C489 331 529 289 529 216C529 144 494 102 397 102Z"  horiz-adv-x="932" vert-adv-y="1000"  />

      
      <glyph glyph-name="uni042D" unicode="&#x042D;" d="M318 707C214 707 120 662 54 591L124 526C174 576 242 605 318 605C440 605 539 520 557 401L270 401L270 300L557 300C540 180 440 95 318 95C242 95 174 123 124 174L54 109C120 38 214-7 318-7C515-7 674 153 674 350C674 547 515 707 318 707Z"  horiz-adv-x="738" vert-adv-y="1000"  />

      
      <glyph glyph-name="uni042E" unicode="&#x042E;" d="M671 707C492 707 344 574 321 401L211 401L211 700L103 700L103 0L211 0L211 300L321 300C344 126 492-7 671-7C868-7 1028 152 1028 350C1028 547 868 707 671 707ZM672 95C533 95 424 201 424 350C424 498 533 605 672 605C811 605 921 498 921 350C921 201 811 95 672 95Z"  horiz-adv-x="1092" vert-adv-y="1000"  />

      
      <glyph glyph-name="uni0430" unicode="&#x0430;" d="M564 0L564 500L496 500L490 408C453 467 385 507 306 507C164 507 59 392 59 250C59 108 164-6 306-6C385-6 453 33 490 92L496 0ZM315 90C232 90 159 155 159 250C159 345 232 411 315 411C398 411 472 345 472 250C472 155 398 90 315 90Z"  horiz-adv-x="653" vert-adv-y="1000"  />

      
      <glyph glyph-name="uni0431" unicode="&#x0431;" d="M450 700C450 665 429 655 351 655C166 655 59 559 59 384L59 258C59 99 170-8 315-8C470-8 572 107 572 250C572 386 475 490 333 490C257 490 190 450 159 390L159 418C159 520 230 570 344 570L370 570C502 570 549 614 549 700ZM316 398C398 398 472 333 472 243C472 153 401 88 316 88C229 88 159 153 159 243C159 333 232 398 316 398Z"  horiz-adv-x="631" vert-adv-y="1000"  />

      
      <glyph glyph-name="uni0432" unicode="&#x0432;" d="M89 500L89 0L352 0C484 0 541 46 541 145C541 203 510 247 447 261C498 279 517 319 517 367C517 447 468 500 351 500ZM189 415L345 415C397 415 418 389 418 355C418 321 398 295 346 295L189 295ZM189 85L189 222L356 221C419 221 441 192 441 153C441 113 418 85 355 85Z"  horiz-adv-x="602" vert-adv-y="1000"  />

      
      <glyph glyph-name="uni0433" unicode="&#x0433;" d="M189 404L469 404L469 500L89 500L89 0L189 0Z"  horiz-adv-x="504" vert-adv-y="1000"  />

      
      <glyph glyph-name="uni0434" unicode="&#x0434;" d="M613-102L613 96L541 96L355 500L292 500L106 96L34 96L34-102L134-102L134 0L514 0L514-102ZM324 351L440 96L209 96Z"  horiz-adv-x="648" vert-adv-y="1000"  />

      
      <glyph glyph-name="uni0435" unicode="&#x0435;" d="M312 507C157 507 59 392 59 250C59 102 164-6 318-6C405-6 478 29 533 71L479 129C432 101 376 85 318 85C229 85 162 136 162 224L543 224C555 262 553 324 534 366C497 453 420 507 312 507ZM313 416C375 416 420 383 441 337C449 322 453 303 453 288L166 288C170 356 228 416 313 416Z"  horiz-adv-x="616" vert-adv-y="1000"  />

      
      <glyph glyph-name="uni0451" unicode="&#x0451;" d="M207 660C173 660 147 637 147 607C147 577 173 553 207 553C240 553 266 577 266 607C266 637 240 660 207 660ZM419 660C385 660 359 637 359 607C359 577 385 553 419 553C452 553 478 577 478 607C478 637 452 660 419 660ZM312 507C157 507 59 392 59 250C59 102 164-6 318-6C405-6 478 29 533 71L479 129C432 101 376 85 318 85C229 85 162 136 162 224L543 224C555 262 553 324 534 366C497 453 420 507 312 507ZM313 416C375 416 420 383 441 337C449 322 453 303 453 288L166 288C170 356 228 416 313 416Z"  horiz-adv-x="605" vert-adv-y="1000"  />

      
      <glyph glyph-name="uni0436" unicode="&#x0436;" d="M737 0L848 0L737 171C707 216 680 249 648 259C675 270 702 303 729 344L832 500L720 500L646 386C607 326 590 306 530 306L491 306L491 500L391 500L391 306L352 306C292 306 275 326 237 386L162 500L51 500L153 344C181 303 207 270 234 259C202 249 175 216 146 171L34 0L145 0L229 130C267 189 285 209 345 209L391 209L391 0L491 0L491 209L538 209C598 209 615 189 653 130Z"  horiz-adv-x="883" vert-adv-y="1000"  />

      
      <glyph glyph-name="uni0437" unicode="&#x0437;" d="M395 261C447 280 467 323 467 371C467 458 384 507 285 507L276 507C190 507 113 465 71 415L124 357C161 393 210 416 268 416L277 416C327 416 368 395 368 349C368 315 348 290 296 289L222 289L222 227L306 227C369 226 391 198 391 159C391 109 346 84 285 84L273 84C204 84 143 112 109 150L54 91C84 43 174-7 275-7L288-7C406-6 491 44 491 145C491 204 460 247 395 261Z"  horiz-adv-x="554" vert-adv-y="1000"  />

      
      <glyph glyph-name="uni0438" unicode="&#x0438;" d="M546 0L546 500L483 500L189 164L189 500L89 500L89 0L152 0L446 336L446 0Z"  horiz-adv-x="635" vert-adv-y="1000"  />

      
      <glyph glyph-name="uni0439" unicode="&#x0439;" d="M318 551C401 551 468 610 468 692L398 692C398 652 363 621 318 621C273 621 238 652 238 692L168 692C168 610 235 551 318 551ZM546 0L546 500L483 500L189 164L189 500L89 500L89 0L152 0L446 336L446 0Z"  horiz-adv-x="635" vert-adv-y="1000"  />

      
      <glyph glyph-name="uni043A" unicode="&#x043A;" d="M449 0L560 0L448 171C419 216 392 249 360 259C387 270 413 303 441 344L543 500L432 500L357 386C319 326 302 306 242 306L194 306L194 500L94 500L94 0L194 0L194 209L250 209C309 209 327 189 365 130Z"  horiz-adv-x="589" vert-adv-y="1000"  />

      
      <glyph glyph-name="uni043B" unicode="&#x043B;" d="M296 351L453 0L558 0L327 500L265 500L34 0L140 0Z"  horiz-adv-x="593" vert-adv-y="1000"  />

      
      <glyph glyph-name="uni043C" unicode="&#x043C;" d="M613 0L613 500L550 500L351 272L152 500L89 500L89 0L189 0L189 336L351 151L513 336L513 0Z"  horiz-adv-x="702" vert-adv-y="1000"  />

      
      <glyph glyph-name="uni043D" unicode="&#x043D;" d="M552 0L552 500L452 500L452 301L189 301L189 500L89 500L89 0L189 0L189 205L452 205L452 0Z"  horiz-adv-x="641" vert-adv-y="1000"  />

      
      <glyph glyph-name="uni043E" unicode="&#x043E;" d="M315 507C173 507 59 392 59 250C59 108 173-6 315-6C457-6 572 108 572 250C572 392 457 507 315 507ZM315 411C398 411 472 345 472 250C472 155 398 90 315 90C232 90 159 155 159 250C159 345 232 411 315 411Z"  horiz-adv-x="631" vert-adv-y="1000"  />

      
      <glyph glyph-name="uni043F" unicode="&#x043F;" d="M552 0L552 500L89 500L89 0L189 0L189 404L452 404L452 0Z"  horiz-adv-x="641" vert-adv-y="1000"  />

      
      <glyph glyph-name="uni0440" unicode="&#x0440;" d="M352 506C273 506 205 467 168 408L162 500L94 500L94-184L194-184L194 76C226 27 285-7 352-7C494-7 599 108 599 250C599 392 494 506 352 506ZM344 410C427 410 500 345 500 250C500 155 427 90 344 90C261 90 187 155 187 250C187 345 261 410 344 410Z"  horiz-adv-x="658" vert-adv-y="1000"  />

      
      <glyph glyph-name="uni0441" unicode="&#x0441;" d="M315 506C173 506 59 392 59 250C59 108 173-6 315-6C394-6 465 30 512 86L452 151C411 109 367 90 315 90C232 90 159 155 159 250C159 345 232 410 315 410C367 410 411 392 452 349L512 414C465 470 394 506 315 506Z"  horiz-adv-x="566" vert-adv-y="1000"  />

      
      <glyph glyph-name="uni0442" unicode="&#x0442;" d="M303 404L473 404L473 500L34 500L34 404L203 404L203 0L303 0Z"  horiz-adv-x="508" vert-adv-y="1000"  />

      
      <glyph glyph-name="uni0443" unicode="&#x0443;" d="M567 500L468 500L468 270C468 158 410 101 322 101C241 101 189 145 189 251L189 500L89 500L89 245C89 98 167 5 307 5C366 5 432 28 467 88L467 42C467-50 412-100 321-100C258-100 208-82 160-53L103-114C157-159 231-191 321-191C477-191 567-85 567 63Z"  horiz-adv-x="651" vert-adv-y="1000"  />

      
      <glyph glyph-name="uni0444" unicode="&#x0444;" d="M722 506C645 506 578 468 541 412L538 500L490 500L487 411C450 468 383 506 306 506C164 506 59 392 59 250C59 108 164-7 306-7C373-7 431 26 464 74L464-175L564-175L564 75C596 26 655-7 722-7C864-7 969 108 969 250C969 392 864 506 722 506ZM315 90C232 90 159 155 159 250C159 345 232 410 315 410C398 410 472 345 472 250C472 155 398 90 315 90ZM713 90C630 90 556 155 556 250C556 345 630 410 713 410C796 410 869 345 869 250C869 155 796 90 713 90Z"  horiz-adv-x="1028" vert-adv-y="1000"  />

      
      <glyph glyph-name="uni0445" unicode="&#x0445;" d="M292 176L437 0L553 0L351 255L542 500L426 500L295 338L161 500L45 500L236 259L34 0L150 0Z"  horiz-adv-x="588" vert-adv-y="1000"  />

      
      <glyph glyph-name="uni0447" unicode="&#x0447;" d="M560 0L560 500L460 500L460 353C460 269 425 206 323 206C220 206 184 260 184 366L184 500L84 500L84 360C84 213 145 110 308 110C375 110 429 134 460 178L460 0Z"  horiz-adv-x="649" vert-adv-y="1000"  />

      
      <glyph glyph-name="uni0446" unicode="&#x0446;" d="M632-102L632 96L546 96L546 500L446 500L446 96L189 96L189 500L89 500L89 0L532 0L532-102Z"  horiz-adv-x="666" vert-adv-y="1000"  />

      
      <glyph glyph-name="uni0448" unicode="&#x0448;" d="M827 0L827 500L728 500L728 96L508 96L508 500L408 500L408 96L189 96L189 500L89 500L89 0Z"  horiz-adv-x="916" vert-adv-y="1000"  />

      
      <glyph glyph-name="uni0449" unicode="&#x0449;" d="M913-102L913 96L827 96L827 500L728 500L728 96L508 96L508 500L408 500L408 96L189 96L189 500L89 500L89 0L813 0L813-102Z"  horiz-adv-x="948" vert-adv-y="1000"  />

      
      <glyph glyph-name="uni044C" unicode="&#x044C;" d="M189 347L189 500L89 500L89 0L333 0C498 0 537 96 537 174C537 251 498 347 333 347ZM189 93L189 254L344 254C416 254 437 217 437 174C437 130 416 93 344 93Z"  horiz-adv-x="591" vert-adv-y="1000"  />

      
      <glyph glyph-name="uni044A" unicode="&#x044A;" d="M223 347L223 500L34 500L34 404L123 404L123 0L367 0C532 0 571 96 571 174C571 251 532 347 367 347ZM223 93L223 254L378 254C450 254 471 217 471 174C471 130 450 93 378 93Z"  horiz-adv-x="655" vert-adv-y="1000"  />

      
      <glyph glyph-name="uni044B" unicode="&#x044B;" d="M189 347L189 500L89 500L89 0L333 0C498 0 537 96 537 174C537 251 498 347 333 347ZM692 0L692 500L592 500L592 0ZM189 93L189 254L344 254C416 254 437 217 437 174C437 130 416 93 344 93Z"  horiz-adv-x="781" vert-adv-y="1000"  />

      
      <glyph glyph-name="uni044D" unicode="&#x044D;" d="M251 506C172 506 101 470 54 414L114 349C156 392 200 410 251 410C325 410 389 357 400 283L216 283L216 218L400 218C389 143 326 90 251 90C200 90 155 109 114 151L54 86C101 30 172-6 251-6C393-6 507 108 507 250C507 392 393 506 251 506Z"  horiz-adv-x="566" vert-adv-y="1000"  />

      
      <glyph glyph-name="uni044E" unicode="&#x044E;" d="M526 507C402 507 299 418 278 301L189 301L189 500L89 500L89 0L189 0L189 205L276 205C296 85 400-6 526-6C668-6 783 108 783 250C783 392 668 507 526 507ZM526 90C443 90 370 155 370 250C370 345 443 411 526 411C609 411 683 345 683 250C683 155 609 90 526 90Z"  horiz-adv-x="842" vert-adv-y="1000"  />

      
      <glyph glyph-name="uni044F" unicode="&#x044F;" d="M504 0L504 500L268 500C110 500 55 409 55 321C55 253 100 188 174 168C147 150 130 121 107 88L49 0L158 0L208 74C246 131 263 153 317 154L404 154L404 0ZM404 404L404 239L258 239C190 239 155 271 155 321C155 372 190 404 258 404Z"  horiz-adv-x="577" vert-adv-y="1000"  />

      
      <glyph glyph-name="uni30" unicode="&#x30;" d="M413 693C219 693 63 536 63 343C63 149 219-7 413-7C606-7 763 149 763 343C763 536 606 693 413 693ZM413 591C548 591 655 487 655 343C655 198 548 95 413 95C278 95 172 198 172 343C172 487 278 591 413 591Z"  horiz-adv-x="827" vert-adv-y="1000"  />

      
      <glyph glyph-name="uni31" unicode="&#x31;" d="M302 0L302 685L240 685L44 450L114 396L194 492L194 0Z"  horiz-adv-x="412" vert-adv-y="1000"  />

      
      </font>
</defs>
</svg>
